# MagicaVoxel @ Ephtracy

# group
o 

# material
mtllib Tank2.mtl
usemtl palette

# normals
vn -1 0 0
vn 1 0 0
vn 0 0 1
vn 0 0 -1
vn 0 -1 0
vn 0 1 0

# texcoords
vt 0.908203 0.5
vt 0.912109 0.5
vt 0.982422 0.5
vt 0.986328 0.5
vt 0.990234 0.5

# verts
v -0.3 0 0.4
v -0.3 0 -0.4
v -0.3 0.1 0.5
v -0.3 0.1 0.4
v -0.3 0.1 0.3
v -0.3 0.1 0.2
v -0.3 0.1 0.1
v -0.3 0.1 0
v -0.3 0.1 -0.1
v -0.3 0.1 -0.2
v -0.3 0.1 -0.3
v -0.3 0.1 -0.4
v -0.3 0.1 -0.5
v -0.3 0.2 0.5
v -0.3 0.2 0.4
v -0.3 0.2 0.3
v -0.3 0.2 0.2
v -0.3 0.2 0.1
v -0.3 0.2 0
v -0.3 0.2 -0.1
v -0.3 0.2 -0.2
v -0.3 0.2 -0.3
v -0.3 0.2 -0.4
v -0.3 0.2 -0.5
v -0.3 0.3 0.4
v -0.3 0.3 -0.4
v -0.2 0.2 -0.4
v -0.2 0.2 -0.5
v -0.2 0.3 0.2
v -0.2 0.3 -0.2
v -0.2 0.3 -0.4
v -0.2 0.3 -0.5
v -0.2 0.4 0.2
v -0.2 0.4 0.1
v -0.2 0.4 -0.1
v -0.2 0.4 -0.2
v -0.2 0.5 0.1
v -0.2 0.5 -0.1
v -0.1 0.4 0.2
v -0.1 0.4 0.1
v -0.1 0.4 -0.1
v -0.1 0.4 -0.2
v -0.1 0.4 -0.3
v -0.1 0.5 0.2
v -0.1 0.5 0.1
v -0.1 0.5 -0.1
v -0.1 0.5 -0.3
v 0.2 0 0.4
v 0.2 0 -0.4
v 0.2 0.1 0.4
v 0.2 0.1 -0.4
v -0.2 0 0.4
v -0.2 0 -0.4
v -0.2 0.1 0.4
v -0.2 0.1 -0.4
v 0.1 0.4 0.2
v 0.1 0.4 0.1
v 0.1 0.4 -0.1
v 0.1 0.4 -0.2
v 0.1 0.4 -0.3
v 0.1 0.5 0.2
v 0.1 0.5 0.1
v 0.1 0.5 -0.1
v 0.1 0.5 -0.3
v 0.2 0.2 -0.4
v 0.2 0.2 -0.5
v 0.2 0.3 0.2
v 0.2 0.3 -0.2
v 0.2 0.3 -0.4
v 0.2 0.3 -0.5
v 0.2 0.4 0.2
v 0.2 0.4 0.1
v 0.2 0.4 -0.1
v 0.2 0.4 -0.2
v 0.2 0.5 0.1
v 0.2 0.5 -0.1
v 0.3 0 0.4
v 0.3 0 -0.4
v 0.3 0.1 0.5
v 0.3 0.1 0.4
v 0.3 0.1 0.3
v 0.3 0.1 0.2
v 0.3 0.1 0.1
v 0.3 0.1 0
v 0.3 0.1 -0.1
v 0.3 0.1 -0.2
v 0.3 0.1 -0.3
v 0.3 0.1 -0.4
v 0.3 0.1 -0.5
v 0.3 0.2 0.5
v 0.3 0.2 0.4
v 0.3 0.2 0.3
v 0.3 0.2 0.2
v 0.3 0.2 0.1
v 0.3 0.2 0
v 0.3 0.2 -0.1
v 0.3 0.2 -0.2
v 0.3 0.2 -0.3
v 0.3 0.2 -0.4
v 0.3 0.2 -0.5
v 0.3 0.3 0.4
v 0.3 0.3 -0.4
v -0.3 0.1 0.5
v -0.3 0.2 0.5
v -0.2 0.1 0.5
v -0.2 0.2 0.5
v 0.2 0.1 0.5
v 0.2 0.2 0.5
v 0.3 0.1 0.5
v 0.3 0.2 0.5
v -0.3 0 0.4
v -0.3 0.1 0.4
v -0.3 0.2 0.4
v -0.3 0.3 0.4
v -0.2 0 0.4
v -0.2 0.1 0.4
v -0.2 0.2 0.4
v -0.2 0.3 0.4
v 0.2 0 0.4
v 0.2 0.1 0.4
v 0.2 0.2 0.4
v 0.2 0.3 0.4
v 0.3 0 0.4
v 0.3 0.1 0.4
v 0.3 0.2 0.4
v 0.3 0.3 0.4
v -0.2 0.3 0.2
v -0.2 0.4 0.2
v -0.1 0.4 0.2
v -0.1 0.5 0.2
v 0.1 0.4 0.2
v 0.1 0.5 0.2
v 0.2 0.3 0.2
v 0.2 0.4 0.2
v -0.2 0.4 0.1
v -0.2 0.5 0.1
v -0.1 0.4 0.1
v -0.1 0.5 0.1
v 0.1 0.4 0.1
v 0.1 0.5 0.1
v 0.2 0.4 0.1
v 0.2 0.5 0.1
v -0.2 0.4 -0.1
v -0.2 0.5 -0.1
v -0.1 0.4 -0.1
v -0.1 0.5 -0.1
v 0.1 0.4 -0.1
v 0.1 0.5 -0.1
v 0.2 0.4 -0.1
v 0.2 0.5 -0.1
v -0.2 0.3 -0.2
v -0.2 0.4 -0.2
v -0.1 0.4 -0.2
v 0.1 0.4 -0.2
v 0.2 0.3 -0.2
v 0.2 0.4 -0.2
v -0.1 0.4 -0.3
v -0.1 0.5 -0.3
v 0.1 0.4 -0.3
v 0.1 0.5 -0.3
v -0.3 0 -0.4
v -0.3 0.1 -0.4
v -0.3 0.2 -0.4
v -0.3 0.3 -0.4
v -0.2 0 -0.4
v -0.2 0.1 -0.4
v -0.2 0.2 -0.4
v -0.2 0.3 -0.4
v 0.2 0 -0.4
v 0.2 0.1 -0.4
v 0.2 0.2 -0.4
v 0.2 0.3 -0.4
v 0.3 0 -0.4
v 0.3 0.1 -0.4
v 0.3 0.2 -0.4
v 0.3 0.3 -0.4
v -0.3 0.1 -0.5
v -0.3 0.2 -0.5
v -0.2 0.1 -0.5
v -0.2 0.2 -0.5
v -0.2 0.3 -0.5
v 0.2 0.1 -0.5
v 0.2 0.2 -0.5
v 0.2 0.3 -0.5
v 0.3 0.1 -0.5
v 0.3 0.2 -0.5
v -0.3 0 0.4
v -0.2 0 0.4
v 0.2 0 0.4
v 0.3 0 0.4
v -0.3 0 -0.4
v -0.2 0 -0.4
v 0.2 0 -0.4
v 0.3 0 -0.4
v -0.3 0.1 0.5
v -0.2 0.1 0.5
v 0.2 0.1 0.5
v 0.3 0.1 0.5
v -0.3 0.1 0.4
v -0.2 0.1 0.4
v 0.2 0.1 0.4
v 0.3 0.1 0.4
v -0.3 0.1 -0.4
v -0.2 0.1 -0.4
v 0.2 0.1 -0.4
v 0.3 0.1 -0.4
v -0.3 0.1 -0.5
v -0.2 0.1 -0.5
v 0.2 0.1 -0.5
v 0.3 0.1 -0.5
v -0.1 0.4 -0.2
v 0.1 0.4 -0.2
v -0.1 0.4 -0.3
v 0.1 0.4 -0.3
v -0.3 0.2 0.5
v -0.2 0.2 0.5
v 0.2 0.2 0.5
v 0.3 0.2 0.5
v -0.3 0.2 0.4
v -0.2 0.2 0.4
v 0.2 0.2 0.4
v 0.3 0.2 0.4
v -0.3 0.2 -0.4
v -0.2 0.2 -0.4
v 0.2 0.2 -0.4
v 0.3 0.2 -0.4
v -0.3 0.2 -0.5
v -0.2 0.2 -0.5
v 0.2 0.2 -0.5
v 0.3 0.2 -0.5
v -0.3 0.3 0.4
v -0.2 0.3 0.4
v 0.2 0.3 0.4
v 0.3 0.3 0.4
v -0.2 0.3 0.2
v 0.2 0.3 0.2
v -0.2 0.3 -0.2
v 0.2 0.3 -0.2
v -0.3 0.3 -0.4
v -0.2 0.3 -0.4
v 0.2 0.3 -0.4
v 0.3 0.3 -0.4
v -0.2 0.3 -0.5
v 0.2 0.3 -0.5
v -0.2 0.4 0.2
v -0.1 0.4 0.2
v 0.1 0.4 0.2
v 0.2 0.4 0.2
v -0.2 0.4 0.1
v -0.1 0.4 0.1
v 0.1 0.4 0.1
v 0.2 0.4 0.1
v -0.2 0.4 -0.1
v -0.1 0.4 -0.1
v 0.1 0.4 -0.1
v 0.2 0.4 -0.1
v -0.2 0.4 -0.2
v -0.1 0.4 -0.2
v 0.1 0.4 -0.2
v 0.2 0.4 -0.2
v -0.1 0.5 0.2
v 0.1 0.5 0.2
v -0.2 0.5 0.1
v -0.1 0.5 0.1
v 0.1 0.5 0.1
v 0.2 0.5 0.1
v -0.2 0.5 -0.1
v -0.1 0.5 -0.1
v 0.1 0.5 -0.1
v 0.2 0.5 -0.1
v -0.1 0.5 -0.3
v 0.1 0.5 -0.3

# faces
f 4/5/1 2/5/1 1/5/1
f 5/5/1 2/5/1 4/5/1
f 6/5/1 2/5/1 5/5/1
f 7/5/1 2/5/1 6/5/1
f 8/5/1 2/5/1 7/5/1
f 9/5/1 2/5/1 8/5/1
f 10/5/1 2/5/1 9/5/1
f 11/5/1 2/5/1 10/5/1
f 12/5/1 2/5/1 11/5/1
f 14/5/1 4/5/1 3/5/1
f 15/3/1 5/3/1 4/3/1
f 15/5/1 4/5/1 14/5/1
f 16/4/1 6/4/1 5/4/1
f 16/3/1 5/3/1 15/3/1
f 17/3/1 7/3/1 6/3/1
f 17/4/1 6/4/1 16/4/1
f 18/4/1 8/4/1 7/4/1
f 18/3/1 7/3/1 17/3/1
f 19/3/1 9/3/1 8/3/1
f 19/4/1 8/4/1 18/4/1
f 20/4/1 10/4/1 9/4/1
f 20/3/1 9/3/1 19/3/1
f 21/3/1 11/3/1 10/3/1
f 21/4/1 10/4/1 20/4/1
f 22/4/1 12/4/1 11/4/1
f 22/3/1 11/3/1 21/3/1
f 23/5/1 13/5/1 12/5/1
f 23/4/1 12/4/1 22/4/1
f 24/5/1 13/5/1 23/5/1
f 25/5/1 22/5/1 21/5/1
f 25/5/1 23/5/1 22/5/1
f 25/5/1 21/5/1 20/5/1
f 25/5/1 20/5/1 19/5/1
f 25/5/1 19/5/1 18/5/1
f 25/5/1 18/5/1 17/5/1
f 25/5/1 17/5/1 16/5/1
f 25/5/1 16/5/1 15/5/1
f 26/5/1 23/5/1 25/5/1
f 31/1/1 28/1/1 27/1/1
f 32/1/1 28/1/1 31/1/1
f 33/1/1 30/1/1 29/1/1
f 34/1/1 30/1/1 33/1/1
f 35/1/1 30/1/1 34/1/1
f 36/1/1 30/1/1 35/1/1
f 37/1/1 35/1/1 34/1/1
f 38/1/1 35/1/1 37/1/1
f 44/1/1 40/1/1 39/1/1
f 45/1/1 40/1/1 44/1/1
f 46/1/1 43/1/1 42/1/1
f 46/1/1 42/1/1 41/1/1
f 47/1/1 43/1/1 46/1/1
f 50/5/1 49/5/1 48/5/1
f 51/5/1 49/5/1 50/5/1
f 52/5/2 53/5/2 54/5/2
f 54/5/2 53/5/2 55/5/2
f 56/1/2 57/1/2 61/1/2
f 61/1/2 57/1/2 62/1/2
f 59/1/2 60/1/2 63/1/2
f 58/1/2 59/1/2 63/1/2
f 63/1/2 60/1/2 64/1/2
f 65/1/2 66/1/2 69/1/2
f 69/1/2 66/1/2 70/1/2
f 67/1/2 68/1/2 71/1/2
f 71/1/2 68/1/2 72/1/2
f 72/1/2 68/1/2 73/1/2
f 73/1/2 68/1/2 74/1/2
f 72/1/2 73/1/2 75/1/2
f 75/1/2 73/1/2 76/1/2
f 77/5/2 78/5/2 80/5/2
f 80/5/2 78/5/2 81/5/2
f 81/5/2 78/5/2 82/5/2
f 82/5/2 78/5/2 83/5/2
f 83/5/2 78/5/2 84/5/2
f 84/5/2 78/5/2 85/5/2
f 85/5/2 78/5/2 86/5/2
f 86/5/2 78/5/2 87/5/2
f 87/5/2 78/5/2 88/5/2
f 79/5/2 80/5/2 90/5/2
f 80/3/2 81/3/2 91/3/2
f 90/5/2 80/5/2 91/5/2
f 81/4/2 82/4/2 92/4/2
f 91/3/2 81/3/2 92/3/2
f 82/3/2 83/3/2 93/3/2
f 92/4/2 82/4/2 93/4/2
f 83/4/2 84/4/2 94/4/2
f 93/3/2 83/3/2 94/3/2
f 84/3/2 85/3/2 95/3/2
f 94/4/2 84/4/2 95/4/2
f 85/4/2 86/4/2 96/4/2
f 95/3/2 85/3/2 96/3/2
f 86/3/2 87/3/2 97/3/2
f 96/4/2 86/4/2 97/4/2
f 87/4/2 88/4/2 98/4/2
f 97/3/2 87/3/2 98/3/2
f 88/5/2 89/5/2 99/5/2
f 98/4/2 88/4/2 99/4/2
f 99/5/2 89/5/2 100/5/2
f 97/5/2 98/5/2 101/5/2
f 98/5/2 99/5/2 101/5/2
f 96/5/2 97/5/2 101/5/2
f 95/5/2 96/5/2 101/5/2
f 94/5/2 95/5/2 101/5/2
f 93/5/2 94/5/2 101/5/2
f 92/5/2 93/5/2 101/5/2
f 91/5/2 92/5/2 101/5/2
f 101/5/2 99/5/2 102/5/2
f 105/5/3 104/5/3 103/5/3
f 106/5/3 104/5/3 105/5/3
f 107/1/3 106/1/3 105/1/3
f 108/1/3 106/1/3 107/1/3
f 109/5/3 108/5/3 107/5/3
f 110/5/3 108/5/3 109/5/3
f 115/5/3 112/5/3 111/5/3
f 116/5/3 112/5/3 115/5/3
f 117/5/3 114/5/3 113/5/3
f 118/5/3 114/5/3 117/5/3
f 121/1/3 118/1/3 117/1/3
f 122/1/3 118/1/3 121/1/3
f 123/5/3 120/5/3 119/5/3
f 124/5/3 120/5/3 123/5/3
f 125/5/3 122/5/3 121/5/3
f 126/5/3 122/5/3 125/5/3
f 129/1/3 128/1/3 127/1/3
f 131/1/3 129/1/3 127/1/3
f 131/1/3 130/1/3 129/1/3
f 132/1/3 130/1/3 131/1/3
f 133/1/3 131/1/3 127/1/3
f 134/1/3 131/1/3 133/1/3
f 137/1/3 136/1/3 135/1/3
f 138/1/3 136/1/3 137/1/3
f 141/1/3 140/1/3 139/1/3
f 142/1/3 140/1/3 141/1/3
f 143/1/4 144/1/4 145/1/4
f 145/1/4 144/1/4 146/1/4
f 147/1/4 148/1/4 149/1/4
f 149/1/4 148/1/4 150/1/4
f 151/1/4 152/1/4 153/1/4
f 151/1/4 153/1/4 154/1/4
f 151/1/4 154/1/4 155/1/4
f 155/1/4 154/1/4 156/1/4
f 157/1/4 158/1/4 159/1/4
f 159/1/4 158/1/4 160/1/4
f 161/5/4 162/5/4 165/5/4
f 165/5/4 162/5/4 166/5/4
f 163/5/4 164/5/4 167/5/4
f 167/5/4 164/5/4 168/5/4
f 169/5/4 170/5/4 173/5/4
f 173/5/4 170/5/4 174/5/4
f 171/5/4 172/5/4 175/5/4
f 175/5/4 172/5/4 176/5/4
f 177/5/4 178/5/4 179/5/4
f 179/5/4 178/5/4 180/5/4
f 179/1/4 180/1/4 182/1/4
f 180/1/4 181/1/4 182/1/4
f 182/1/4 181/1/4 183/1/4
f 183/1/4 181/1/4 184/1/4
f 182/5/4 183/5/4 185/5/4
f 185/5/4 183/5/4 186/5/4
f 191/5/5 188/5/5 187/5/5
f 192/5/5 188/5/5 191/5/5
f 193/5/5 190/5/5 189/5/5
f 194/5/5 190/5/5 193/5/5
f 199/5/5 196/5/5 195/5/5
f 200/1/5 197/1/5 196/1/5
f 200/5/5 196/5/5 199/5/5
f 201/5/5 198/5/5 197/5/5
f 201/1/5 197/1/5 200/1/5
f 202/5/5 198/5/5 201/5/5
f 204/1/5 201/1/5 200/1/5
f 205/1/5 201/1/5 204/1/5
f 207/5/5 204/5/5 203/5/5
f 208/1/5 205/1/5 204/1/5
f 208/5/5 204/5/5 207/5/5
f 209/5/5 206/5/5 205/5/5
f 209/1/5 205/1/5 208/1/5
f 210/5/5 206/5/5 209/5/5
f 213/1/5 212/1/5 211/1/5
f 214/1/5 212/1/5 213/1/5
f 215/5/6 216/5/6 219/5/6
f 216/1/6 217/1/6 220/1/6
f 219/5/6 216/5/6 220/5/6
f 217/5/6 218/5/6 221/5/6
f 220/1/6 217/1/6 221/1/6
f 221/5/6 218/5/6 222/5/6
f 223/5/6 224/5/6 227/5/6
f 227/5/6 224/5/6 228/5/6
f 225/5/6 226/5/6 229/5/6
f 229/5/6 226/5/6 230/5/6
f 231/5/6 232/5/6 235/5/6
f 232/1/6 233/1/6 235/1/6
f 233/5/6 234/5/6 236/5/6
f 235/1/6 233/1/6 236/1/6
f 231/5/6 235/5/6 237/5/6
f 236/5/6 234/5/6 238/5/6
f 231/5/6 237/5/6 239/5/6
f 237/1/6 238/1/6 240/1/6
f 239/5/6 237/5/6 240/5/6
f 238/5/6 234/5/6 241/5/6
f 240/1/6 238/1/6 241/1/6
f 241/5/6 234/5/6 242/5/6
f 240/1/6 241/1/6 243/1/6
f 243/1/6 241/1/6 244/1/6
f 245/1/6 246/1/6 249/1/6
f 249/1/6 246/1/6 250/1/6
f 247/1/6 248/1/6 251/1/6
f 251/1/6 248/1/6 252/1/6
f 253/1/6 254/1/6 257/1/6
f 257/1/6 254/1/6 258/1/6
f 255/1/6 256/1/6 259/1/6
f 259/1/6 256/1/6 260/1/6
f 261/1/6 262/1/6 264/1/6
f 264/1/6 262/1/6 265/1/6
f 263/1/6 264/1/6 267/1/6
f 265/1/6 266/1/6 267/1/6
f 264/1/6 265/1/6 267/1/6
f 267/1/6 266/1/6 268/1/6
f 268/1/6 266/1/6 269/1/6
f 269/1/6 266/1/6 270/1/6
f 268/1/6 269/1/6 271/1/6
f 271/1/6 269/1/6 272/1/6
