# MagicaVoxel @ Ephtracy

# group
o 

# material
mtllib Building3_Destroyed2-3.mtl
usemtl palette

# normals
vn -1 0 0
vn 1 0 0
vn 0 0 1
vn 0 0 -1
vn 0 -1 0
vn 0 1 0

# texcoords
vt 0.00195313 0.5
vt 0.00585938 0.5
vt 0.00976563 0.5
vt 0.0136719 0.5
vt 0.0175781 0.5

# verts
v -0.3 -0.6 0.2
v -0.3 -0.6 0
v -0.3 -0.5 0.1
v -0.3 -0.5 0
v -0.3 -0.4 0.2
v -0.3 -0.4 0.1
v -0.3 -0.2 0.2
v -0.3 -0.2 0.1
v -0.3 -0.1 0.3
v -0.3 -0.1 0.2
v -0.3 -5.96046e-008 0.3
v -0.3 -5.96046e-008 0.2
v -0.3 -5.96046e-008 0.1
v -0.2 -0.6 0.3
v -0.2 -0.6 0.2
v -0.2 -0.5 0.3
v -0.2 -0.5 0.2
v -0.2 -0.4 0.3
v -0.2 -0.4 0.2
v -0.1 -0.5 0.2
v -0.1 -0.5 0.1
v -0.1 -0.4 0.3
v -0.1 -0.4 0.2
v -0.1 -0.3 0.3
v -0.1 -0.3 0.2
v -0.1 -0.3 0.1
v 0 -0.6 0
v 0 -0.6 -0.4
v 0 -0.5 0.1
v 0 -0.5 0
v 0 -0.5 -0.4
v 0 -0.3 0.3
v 0 -0.3 0.2
v 0 -0.3 0.1
v 0 -0.2 0.3
v 0 -0.2 0.2
v 0 -0.2 0.1
v 0 -0.2 0
v 0 -5.96046e-008 0.3
v 0 -5.96046e-008 0.2
v 0 -5.96046e-008 0.1
v 0 0.1 0.3
v 0 0.1 0.2
v 0 0.2 0.3
v 0 0.2 0.2
v 0 0.3 0.3
v 0 0.3 0.2
v 0 0.4 0.3
v 0 0.4 0.2
v 0 0.4 0.1
v 0.1 -0.1 0.3
v 0.1 -0.1 0.2
v 0.1 -5.96046e-008 0.3
v 0.1 -5.96046e-008 0.2
v 0.2 -5.96046e-008 0.2
v 0.2 -5.96046e-008 0.1
v 0.2 0.1 0.2
v 0.2 0.1 0.1
v 0.3 -0.2 0.3
v 0.3 -0.2 0.2
v 0.3 -0.2 0.1
v 0.3 -0.1 0.3
v 0.3 -0.1 0.2
v 0.3 -0.1 0.1
v -0.2 -0.5 0.2
v -0.2 -0.5 0.1
v -0.2 -0.4 0.2
v -0.2 -0.4 0.1
v 0 -0.4 0.3
v 0 -0.4 0.2
v 0 -0.3 0.3
v 0 -0.3 0.2
v 0 -0.1 0.3
v 0 -0.1 0.2
v 0 -5.96046e-008 0.3
v 0 -5.96046e-008 0.2
v 0.1 -0.6 0.3
v 0.1 -0.6 0.2
v 0.1 -0.6 0.1
v 0.1 -0.6 0
v 0.1 -0.6 -0.4
v 0.1 -0.5 0.3
v 0.1 -0.5 0.2
v 0.1 -0.5 0.1
v 0.1 -0.5 0
v 0.1 -0.5 -0.4
v 0.1 -0.4 0.3
v 0.1 -0.4 0.2
v 0.1 -0.3 0.3
v 0.1 -0.3 0.2
v 0.1 -0.2 0.3
v 0.1 -0.2 0.2
v 0.1 -0.2 0.1
v 0.1 -0.2 0
v 0.1 -0.1 0.2
v 0.1 -0.1 0.1
v 0.1 -5.96046e-008 0.2
v 0.1 -5.96046e-008 0.1
v 0.1 0.1 0.2
v 0.1 0.1 0.1
v 0.1 0.2 0.3
v 0.1 0.2 0.2
v 0.1 0.3 0.3
v 0.1 0.3 0.2
v 0.1 0.3 0.1
v 0.1 0.4 0.3
v 0.1 0.4 0.2
v 0.1 0.4 0.1
v 0.2 -0.6 0.1
v 0.2 -0.6 0
v 0.2 -0.5 0.1
v 0.2 -0.5 0
v 0.2 0.1 0.3
v 0.2 0.1 0.2
v 0.2 0.2 0.3
v 0.2 0.2 0.2
v 0.2 0.2 0.1
v 0.2 0.3 0.2
v 0.2 0.3 0.1
v 0.3 -5.96046e-008 0.3
v 0.3 -5.96046e-008 0.2
v 0.3 0.1 0.3
v 0.3 0.1 0.2
v 0.4 -0.2 0.3
v 0.4 -0.2 0.2
v 0.4 -0.2 0.1
v 0.4 -5.96046e-008 0.3
v 0.4 -5.96046e-008 0.2
v 0.4 0.2 0.2
v 0.4 0.2 0.1
v -0.3 -0.1 0.3
v -0.3 -5.96046e-008 0.3
v -0.2 -0.6 0.3
v -0.2 -0.5 0.3
v -0.2 -0.4 0.3
v -0.2 -0.1 0.3
v -0.2 -5.96046e-008 0.3
v -0.1 -0.4 0.3
v -0.1 -0.3 0.3
v 0 -0.4 0.3
v 0 -0.3 0.3
v 0 -0.2 0.3
v 0 -0.1 0.3
v 0 -5.96046e-008 0.3
v 0 0.1 0.3
v 0 0.2 0.3
v 0 0.3 0.3
v 0 0.4 0.3
v 0.1 -0.6 0.3
v 0.1 -0.5 0.3
v 0.1 -0.4 0.3
v 0.1 -0.3 0.3
v 0.1 -0.2 0.3
v 0.1 -0.1 0.3
v 0.1 -5.96046e-008 0.3
v 0.1 0.1 0.3
v 0.1 0.2 0.3
v 0.1 0.3 0.3
v 0.1 0.4 0.3
v 0.2 -5.96046e-008 0.3
v 0.2 0.1 0.3
v 0.2 0.2 0.3
v 0.3 -0.2 0.3
v 0.3 -0.1 0.3
v 0.3 -5.96046e-008 0.3
v 0.3 0.1 0.3
v 0.4 -0.2 0.3
v 0.4 -5.96046e-008 0.3
v -0.3 -0.6 0.2
v -0.3 -0.4 0.2
v -0.3 -0.2 0.2
v -0.3 -0.1 0.2
v -0.2 -0.6 0.2
v -0.2 -0.5 0.2
v -0.2 -0.4 0.2
v -0.2 -0.1 0.2
v 0 -0.4 0.2
v 0 -0.3 0.2
v 0 -0.2 0.2
v 0 -0.1 0.2
v 0 -5.96046e-008 0.2
v 0.1 -0.4 0.2
v 0.1 -0.3 0.2
v 0.1 -0.2 0.2
v 0.1 -0.1 0.2
v 0.1 -5.96046e-008 0.2
v 0.1 0.2 0.2
v 0.1 0.3 0.2
v 0.2 0.1 0.2
v 0.2 0.2 0.2
v 0.2 0.3 0.2
v 0.3 -5.96046e-008 0.2
v 0.3 0.1 0.2
v 0.4 -5.96046e-008 0.2
v 0.4 0.2 0.2
v 0.1 -0.6 0.1
v 0.1 -0.5 0.1
v 0.2 -0.6 0.1
v 0.2 -0.5 0.1
v -0.2 -0.5 0.2
v -0.2 -0.4 0.2
v -0.1 -0.5 0.2
v -0.1 -0.4 0.2
v 0.1 -5.96046e-008 0.2
v 0.1 0.1 0.2
v 0.2 -5.96046e-008 0.2
v 0.2 0.1 0.2
v -0.3 -0.5 0.1
v -0.3 -0.4 0.1
v -0.3 -0.2 0.1
v -0.3 -5.96046e-008 0.1
v -0.2 -0.5 0.1
v -0.2 -0.4 0.1
v -0.1 -0.5 0.1
v -0.1 -0.3 0.1
v 0 -0.5 0.1
v 0 -0.3 0.1
v 0 -0.2 0.1
v 0 -5.96046e-008 0.1
v 0 0.4 0.1
v 0.1 -0.2 0.1
v 0.1 -0.1 0.1
v 0.1 -5.96046e-008 0.1
v 0.1 0.1 0.1
v 0.1 0.3 0.1
v 0.1 0.4 0.1
v 0.2 -5.96046e-008 0.1
v 0.2 0.1 0.1
v 0.2 0.2 0.1
v 0.2 0.3 0.1
v 0.3 -0.2 0.1
v 0.3 -0.1 0.1
v 0.4 -0.2 0.1
v 0.4 0.2 0.1
v -0.3 -0.6 0
v -0.3 -0.5 0
v 0 -0.6 0
v 0 -0.5 0
v 0 -0.2 0
v 0.1 -0.6 0
v 0.1 -0.5 0
v 0.1 -0.2 0
v 0.2 -0.6 0
v 0.2 -0.5 0
v 0 -0.6 -0.4
v 0 -0.5 -0.4
v 0.1 -0.6 -0.4
v 0.1 -0.5 -0.4
v -0.2 -0.6 0.3
v 0.1 -0.6 0.3
v -0.3 -0.6 0.2
v -0.2 -0.6 0.2
v 0.1 -0.6 0.2
v 0.1 -0.6 0.1
v 0.2 -0.6 0.1
v -0.3 -0.6 0
v 0 -0.6 0
v 0.1 -0.6 0
v 0.2 -0.6 0
v 0 -0.6 -0.4
v 0.1 -0.6 -0.4
v 0 -0.3 0.3
v 0.1 -0.3 0.3
v 0 -0.3 0.2
v 0.1 -0.3 0.2
v 0.3 -0.2 0.3
v 0.4 -0.2 0.3
v -0.3 -0.2 0.2
v 0 -0.2 0.2
v 0.3 -0.2 0.2
v 0.4 -0.2 0.2
v -0.3 -0.2 0.1
v 0 -0.2 0.1
v 0.3 -0.2 0.1
v 0.4 -0.2 0.1
v -0.3 -0.1 0.3
v -0.2 -0.1 0.3
v 0 -0.1 0.3
v 0.1 -0.1 0.3
v 0.3 -0.1 0.3
v -0.3 -0.1 0.2
v -0.2 -0.1 0.2
v 0 -0.1 0.2
v 0.1 -0.1 0.2
v 0.3 -0.1 0.2
v 0.1 -0.1 0.1
v 0.3 -0.1 0.1
v 0 -5.96046e-008 0.3
v 0.1 -5.96046e-008 0.3
v 0 -5.96046e-008 0.2
v 0.1 -5.96046e-008 0.2
v 0.1 0.1 0.2
v 0.2 0.1 0.2
v 0.1 0.1 0.1
v 0.2 0.1 0.1
v -0.2 -0.5 0.2
v -0.1 -0.5 0.2
v -0.3 -0.5 0.1
v -0.2 -0.5 0.1
v -0.1 -0.5 0.1
v 0 -0.5 0.1
v 0.1 -0.5 0.1
v 0.2 -0.5 0.1
v -0.3 -0.5 0
v 0 -0.5 0
v 0.1 -0.5 0
v 0.2 -0.5 0
v 0 -0.5 -0.4
v 0.1 -0.5 -0.4
v -0.2 -0.4 0.3
v -0.1 -0.4 0.3
v 0 -0.4 0.3
v 0.1 -0.4 0.3
v -0.3 -0.4 0.2
v -0.2 -0.4 0.2
v -0.1 -0.4 0.2
v 0 -0.4 0.2
v 0.1 -0.4 0.2
v -0.3 -0.4 0.1
v -0.2 -0.4 0.1
v -0.1 -0.3 0.3
v 0 -0.3 0.3
v -0.1 -0.3 0.2
v 0 -0.3 0.2
v -0.1 -0.3 0.1
v 0 -0.3 0.1
v 0 -0.2 0.3
v 0.1 -0.2 0.3
v 0 -0.2 0.2
v 0.1 -0.2 0.2
v 0 -0.2 0.1
v 0.1 -0.2 0.1
v 0 -0.2 0
v 0.1 -0.2 0
v -0.3 -5.96046e-008 0.3
v -0.2 -5.96046e-008 0.3
v 0 -5.96046e-008 0.3
v 0.3 -5.96046e-008 0.3
v 0.4 -5.96046e-008 0.3
v -0.3 -5.96046e-008 0.2
v -0.2 -5.96046e-008 0.2
v 0 -5.96046e-008 0.2
v 0.1 -5.96046e-008 0.2
v 0.2 -5.96046e-008 0.2
v 0.3 -5.96046e-008 0.2
v 0.4 -5.96046e-008 0.2
v -0.3 -5.96046e-008 0.1
v 0 -5.96046e-008 0.1
v 0.1 -5.96046e-008 0.1
v 0.2 -5.96046e-008 0.1
v 0.2 0.1 0.3
v 0.3 0.1 0.3
v 0.2 0.1 0.2
v 0.3 0.1 0.2
v 0.1 0.2 0.3
v 0.2 0.2 0.3
v 0.1 0.2 0.2
v 0.2 0.2 0.2
v 0.4 0.2 0.2
v 0.2 0.2 0.1
v 0.4 0.2 0.1
v 0.1 0.3 0.2
v 0.2 0.3 0.2
v 0.1 0.3 0.1
v 0.2 0.3 0.1
v 0 0.4 0.3
v 0.1 0.4 0.3
v 0 0.4 0.2
v 0.1 0.4 0.2
v 0 0.4 0.1
v 0.1 0.4 0.1

# faces
f 3/5/1 2/5/1 1/5/1
f 4/5/1 2/5/1 3/5/1
f 5/5/1 3/5/1 1/5/1
f 6/5/1 3/5/1 5/5/1
f 10/5/1 8/5/1 7/5/1
f 11/1/1 10/1/1 9/1/1
f 12/5/1 8/5/1 10/5/1
f 12/1/1 10/1/1 11/1/1
f 13/5/1 8/5/1 12/5/1
f 16/1/1 15/1/1 14/1/1
f 17/1/1 15/1/1 16/1/1
f 18/2/1 17/2/1 16/2/1
f 19/2/1 17/2/1 18/2/1
f 23/5/1 21/5/1 20/5/1
f 24/4/1 23/4/1 22/4/1
f 25/5/1 21/5/1 23/5/1
f 25/4/1 23/4/1 24/4/1
f 26/5/1 21/5/1 25/5/1
f 30/5/1 28/5/1 27/5/1
f 31/5/1 28/5/1 30/5/1
f 34/5/1 30/5/1 29/5/1
f 35/2/1 33/2/1 32/2/1
f 36/5/1 34/5/1 33/5/1
f 36/2/1 33/2/1 35/2/1
f 37/5/1 30/5/1 34/5/1
f 37/5/1 34/5/1 36/5/1
f 38/5/1 30/5/1 37/5/1
f 42/3/1 40/3/1 39/3/1
f 43/5/1 41/5/1 40/5/1
f 43/3/1 40/3/1 42/3/1
f 44/2/1 43/2/1 42/2/1
f 45/5/1 41/5/1 43/5/1
f 45/2/1 43/2/1 44/2/1
f 46/3/1 45/3/1 44/3/1
f 47/5/1 41/5/1 45/5/1
f 47/3/1 45/3/1 46/3/1
f 48/2/1 47/2/1 46/2/1
f 49/5/1 41/5/1 47/5/1
f 49/2/1 47/2/1 48/2/1
f 50/5/1 41/5/1 49/5/1
f 53/2/1 52/2/1 51/2/1
f 54/2/1 52/2/1 53/2/1
f 57/5/1 56/5/1 55/5/1
f 58/5/1 56/5/1 57/5/1
f 62/1/1 60/1/1 59/1/1
f 63/5/1 61/5/1 60/5/1
f 63/1/1 60/1/1 62/1/1
f 64/5/1 61/5/1 63/5/1
f 65/5/2 66/5/2 67/5/2
f 67/5/2 66/5/2 68/5/2
f 69/4/2 70/4/2 71/4/2
f 71/4/2 70/4/2 72/4/2
f 73/2/2 74/2/2 75/2/2
f 75/2/2 74/2/2 76/2/2
f 77/1/2 78/1/2 82/1/2
f 78/5/2 79/5/2 83/5/2
f 82/1/2 78/1/2 83/1/2
f 83/5/2 79/5/2 84/5/2
f 80/5/2 81/5/2 85/5/2
f 85/5/2 81/5/2 86/5/2
f 82/2/2 83/2/2 87/2/2
f 83/5/2 84/5/2 88/5/2
f 87/2/2 83/2/2 88/2/2
f 84/5/2 85/5/2 88/5/2
f 88/5/2 85/5/2 90/5/2
f 89/2/2 90/2/2 91/2/2
f 90/5/2 85/5/2 92/5/2
f 91/2/2 90/2/2 92/2/2
f 92/5/2 85/5/2 93/5/2
f 93/5/2 85/5/2 94/5/2
f 92/5/2 93/5/2 95/5/2
f 95/5/2 93/5/2 96/5/2
f 97/5/2 98/5/2 99/5/2
f 99/5/2 98/5/2 100/5/2
f 101/3/2 102/3/2 103/3/2
f 103/3/2 102/3/2 104/3/2
f 103/2/2 104/2/2 106/2/2
f 104/5/2 105/5/2 107/5/2
f 106/2/2 104/2/2 107/2/2
f 107/5/2 105/5/2 108/5/2
f 109/5/2 110/5/2 111/5/2
f 111/5/2 110/5/2 112/5/2
f 113/1/2 114/1/2 115/1/2
f 115/1/2 114/1/2 116/1/2
f 116/5/2 117/5/2 118/5/2
f 118/5/2 117/5/2 119/5/2
f 120/3/2 121/3/2 122/3/2
f 122/3/2 121/3/2 123/3/2
f 124/1/2 125/1/2 127/1/2
f 125/5/2 126/5/2 128/5/2
f 127/1/2 125/1/2 128/1/2
f 128/5/2 126/5/2 129/5/2
f 129/5/2 126/5/2 130/5/2
f 136/1/3 132/1/3 131/1/3
f 137/1/3 132/1/3 136/1/3
f 138/2/3 135/2/3 134/2/3
f 140/2/3 138/2/3 134/2/3
f 140/4/3 139/4/3 138/4/3
f 141/4/3 139/4/3 140/4/3
f 143/2/3 137/2/3 136/2/3
f 144/2/3 137/2/3 143/2/3
f 149/1/3 134/1/3 133/1/3
f 150/2/3 140/2/3 134/2/3
f 150/1/3 134/1/3 149/1/3
f 151/2/3 140/2/3 150/2/3
f 152/2/3 142/2/3 141/2/3
f 153/2/3 142/2/3 152/2/3
f 155/3/3 145/3/3 144/3/3
f 156/2/3 146/2/3 145/2/3
f 156/3/3 145/3/3 155/3/3
f 157/3/3 147/3/3 146/3/3
f 157/2/3 146/2/3 156/2/3
f 158/2/3 148/2/3 147/2/3
f 158/3/3 147/3/3 157/3/3
f 159/2/3 148/2/3 158/2/3
f 160/4/3 156/4/3 155/4/3
f 160/2/3 155/2/3 154/2/3
f 161/1/3 157/1/3 156/1/3
f 161/4/3 156/4/3 160/4/3
f 162/1/3 157/1/3 161/1/3
f 164/2/3 160/2/3 154/2/3
f 165/3/3 161/3/3 160/3/3
f 165/2/3 160/2/3 164/2/3
f 166/3/3 161/3/3 165/3/3
f 167/1/3 164/1/3 163/1/3
f 167/1/3 165/1/3 164/1/3
f 168/1/3 165/1/3 167/1/3
f 173/5/3 170/5/3 169/5/3
f 174/5/3 170/5/3 173/5/3
f 175/5/3 170/5/3 174/5/3
f 176/5/3 172/5/3 171/5/3
f 179/5/3 176/5/3 171/5/3
f 180/5/3 176/5/3 179/5/3
f 182/5/3 178/5/3 177/5/3
f 183/5/3 178/5/3 182/5/3
f 184/5/3 180/5/3 179/5/3
f 184/5/3 181/5/3 180/5/3
f 185/5/3 181/5/3 184/5/3
f 186/5/3 181/5/3 185/5/3
f 190/5/3 188/5/3 187/5/3
f 191/5/3 188/5/3 190/5/3
f 193/5/3 190/5/3 189/5/3
f 194/5/3 193/5/3 192/5/3
f 195/5/3 190/5/3 193/5/3
f 195/5/3 193/5/3 194/5/3
f 198/5/3 197/5/3 196/5/3
f 199/5/3 197/5/3 198/5/3
f 200/2/4 201/2/4 202/2/4
f 202/2/4 201/2/4 203/2/4
f 204/4/4 205/4/4 206/4/4
f 206/4/4 205/4/4 207/4/4
f 208/5/4 209/5/4 212/5/4
f 212/5/4 209/5/4 213/5/4
f 214/5/4 215/5/4 216/5/4
f 216/5/4 215/5/4 217/5/4
f 210/5/4 211/5/4 218/5/4
f 218/5/4 211/5/4 219/5/4
f 219/5/4 220/5/4 221/5/4
f 218/5/4 219/5/4 221/5/4
f 221/5/4 220/5/4 222/5/4
f 222/5/4 220/5/4 223/5/4
f 223/5/4 220/5/4 224/5/4
f 224/5/4 220/5/4 225/5/4
f 225/5/4 220/5/4 226/5/4
f 222/5/4 223/5/4 227/5/4
f 224/5/4 225/5/4 228/5/4
f 228/5/4 225/5/4 229/5/4
f 229/5/4 225/5/4 230/5/4
f 222/5/4 227/5/4 232/5/4
f 227/5/4 228/5/4 232/5/4
f 228/5/4 229/5/4 232/5/4
f 231/5/4 232/5/4 233/5/4
f 232/5/4 229/5/4 234/5/4
f 233/5/4 232/5/4 234/5/4
f 235/5/4 236/5/4 237/5/4
f 237/5/4 236/5/4 238/5/4
f 238/5/4 239/5/4 241/5/4
f 241/5/4 239/5/4 242/5/4
f 240/5/4 241/5/4 243/5/4
f 243/5/4 241/5/4 244/5/4
f 245/5/4 246/5/4 247/5/4
f 247/5/4 246/5/4 248/5/4
f 252/1/5 250/1/5 249/1/5
f 253/1/5 250/1/5 252/1/5
f 254/5/5 252/5/5 251/5/5
f 254/5/5 253/5/5 252/5/5
f 256/5/5 254/5/5 251/5/5
f 256/5/5 255/5/5 254/5/5
f 257/5/5 255/5/5 256/5/5
f 258/5/5 255/5/5 257/5/5
f 259/5/5 255/5/5 258/5/5
f 260/5/5 258/5/5 257/5/5
f 261/5/5 258/5/5 260/5/5
f 264/2/5 263/2/5 262/2/5
f 265/2/5 263/2/5 264/2/5
f 270/1/5 267/1/5 266/1/5
f 271/1/5 267/1/5 270/1/5
f 272/5/5 269/5/5 268/5/5
f 273/5/5 269/5/5 272/5/5
f 274/5/5 271/5/5 270/5/5
f 275/5/5 271/5/5 274/5/5
f 281/1/5 277/1/5 276/1/5
f 282/2/5 278/2/5 277/2/5
f 282/1/5 277/1/5 281/1/5
f 283/2/5 278/2/5 282/2/5
f 284/2/5 280/2/5 279/2/5
f 285/2/5 280/2/5 284/2/5
f 286/5/5 285/5/5 284/5/5
f 287/5/5 285/5/5 286/5/5
f 290/3/5 289/3/5 288/3/5
f 291/3/5 289/3/5 290/3/5
f 294/5/5 293/5/5 292/5/5
f 295/5/5 293/5/5 294/5/5
f 296/5/6 297/5/6 299/5/6
f 299/5/6 297/5/6 300/5/6
f 298/5/6 299/5/6 304/5/6
f 299/5/6 300/5/6 304/5/6
f 300/5/6 301/5/6 304/5/6
f 304/5/6 301/5/6 305/5/6
f 302/5/6 303/5/6 306/5/6
f 306/5/6 303/5/6 307/5/6
f 305/5/6 306/5/6 308/5/6
f 308/5/6 306/5/6 309/5/6
f 310/2/6 311/2/6 315/2/6
f 315/2/6 311/2/6 316/2/6
f 312/2/6 313/2/6 317/2/6
f 317/2/6 313/2/6 318/2/6
f 314/5/6 315/5/6 319/5/6
f 319/5/6 315/5/6 320/5/6
f 321/4/6 322/4/6 323/4/6
f 323/4/6 322/4/6 324/4/6
f 323/5/6 324/5/6 325/5/6
f 325/5/6 324/5/6 326/5/6
f 327/2/6 328/2/6 329/2/6
f 329/2/6 328/2/6 330/2/6
f 331/5/6 332/5/6 333/5/6
f 333/5/6 332/5/6 334/5/6
f 335/1/6 336/1/6 340/1/6
f 336/2/6 337/2/6 341/2/6
f 340/1/6 336/1/6 341/1/6
f 341/2/6 337/2/6 342/2/6
f 338/1/6 339/1/6 345/1/6
f 345/1/6 339/1/6 346/1/6
f 340/5/6 341/5/6 347/5/6
f 341/5/6 342/5/6 347/5/6
f 347/5/6 342/5/6 348/5/6
f 343/5/6 344/5/6 349/5/6
f 349/5/6 344/5/6 350/5/6
f 351/3/6 352/3/6 353/3/6
f 353/3/6 352/3/6 354/3/6
f 355/1/6 356/1/6 357/1/6
f 357/1/6 356/1/6 358/1/6
f 358/5/6 359/5/6 360/5/6
f 360/5/6 359/5/6 361/5/6
f 362/5/6 363/5/6 364/5/6
f 364/5/6 363/5/6 365/5/6
f 366/2/6 367/2/6 368/2/6
f 368/2/6 367/2/6 369/2/6
f 368/5/6 369/5/6 370/5/6
f 370/5/6 369/5/6 371/5/6
