# MagicaVoxel @ Ephtracy

# group
o 

# material
mtllib Building2-3.mtl
usemtl palette

# normals
vn -1 0 0
vn 1 0 0
vn 0 0 1
vn 0 0 -1
vn 0 -1 0
vn 0 1 0

# texcoords
vt 0.00195313 0.5
vt 0.00585938 0.5
vt 0.00976563 0.5
vt 0.0136719 0.5
vt 0.0175781 0.5

# verts
v -0.3 -0.5 0.3
v -0.3 -0.5 0.2
v -0.3 -0.5 0
v -0.3 -0.4 0.1
v -0.3 -0.4 0
v -0.3 0.6 0.3
v -0.3 0.6 0.2
v -0.3 0.6 0.1
v 0 -0.5 0
v 0 -0.5 -0.4
v 0 -0.4 0.1
v 0 -0.4 0
v 0 -0.4 -0.4
v 0 0.6 0.1
v 0 0.6 0
v 0.1 -0.5 0
v 0.1 -0.5 -0.4
v 0.1 -0.4 0.1
v 0.1 -0.4 0
v 0.1 -0.4 -0.4
v 0.1 0.6 0.1
v 0.1 0.6 0
v 0.4 -0.5 0.3
v 0.4 -0.5 0.2
v 0.4 -0.5 0
v 0.4 -0.4 0.1
v 0.4 -0.4 0
v 0.4 0.6 0.3
v 0.4 0.6 0.2
v 0.4 0.6 0.1
v -0.3 -0.5 0.3
v -0.3 0.6 0.3
v -0.2 -0.4 0.3
v -0.2 -0.3 0.3
v -0.2 -0.1 0.3
v -0.2 0 0.3
v -0.2 0.1 0.3
v -0.2 0.2 0.3
v -0.2 0.4 0.3
v -0.2 0.5 0.3
v -0.1 -0.3 0.3
v -0.1 -0.1 0.3
v -0.1 0.2 0.3
v -0.1 0.4 0.3
v 0 -0.3 0.3
v 0 -0.1 0.3
v 0 0.2 0.3
v 0 0.4 0.3
v 0.1 -0.3 0.3
v 0.1 -0.1 0.3
v 0.1 0.2 0.3
v 0.1 0.4 0.3
v 0.2 -0.3 0.3
v 0.2 -0.1 0.3
v 0.2 0.2 0.3
v 0.2 0.4 0.3
v 0.3 -0.4 0.3
v 0.3 -0.3 0.3
v 0.3 -0.1 0.3
v 0.3 0 0.3
v 0.3 0.1 0.3
v 0.3 0.2 0.3
v 0.3 0.4 0.3
v 0.3 0.5 0.3
v 0.4 -0.5 0.3
v 0.4 0.6 0.3
v -0.3 -0.4 0.1
v -0.3 0.6 0.1
v 0 -0.4 0.1
v 0 0.6 0.1
v 0.1 -0.4 0.1
v 0.1 0.6 0.1
v 0.4 -0.4 0.1
v 0.4 0.6 0.1
v -0.3 -0.5 0
v -0.3 -0.4 0
v 0 -0.5 0
v 0 -0.4 0
v 0 0.6 0
v 0.1 -0.5 0
v 0.1 -0.4 0
v 0.1 0.6 0
v 0.4 -0.5 0
v 0.4 -0.4 0
v 0 -0.5 -0.4
v 0 -0.4 -0.4
v 0.1 -0.5 -0.4
v 0.1 -0.4 -0.4
v -0.3 -0.5 0.3
v 0.4 -0.5 0.3
v -0.3 -0.5 0.2
v 0.4 -0.5 0.2
v -0.3 -0.5 0
v 0 -0.5 0
v 0.1 -0.5 0
v 0.4 -0.5 0
v 0 -0.5 -0.4
v 0.1 -0.5 -0.4
v -0.3 -0.4 0.1
v 0 -0.4 0.1
v 0.1 -0.4 0.1
v 0.4 -0.4 0.1
v -0.3 -0.4 0
v 0 -0.4 0
v 0.1 -0.4 0
v 0.4 -0.4 0
v 0 -0.4 -0.4
v 0.1 -0.4 -0.4
v -0.3 0.6 0.3
v 0.4 0.6 0.3
v -0.3 0.6 0.2
v 0.4 0.6 0.2
v -0.3 0.6 0.1
v 0 0.6 0.1
v 0.1 0.6 0.1
v 0.4 0.6 0.1
v 0 0.6 0
v 0.1 0.6 0

# faces
f 4/5/1 3/5/1 2/5/1
f 5/5/1 3/5/1 4/5/1
f 6/1/1 2/1/1 1/1/1
f 7/5/1 4/5/1 2/5/1
f 7/1/1 2/1/1 6/1/1
f 8/5/1 4/5/1 7/5/1
f 12/5/1 10/5/1 9/5/1
f 13/5/1 10/5/1 12/5/1
f 14/5/1 12/5/1 11/5/1
f 15/5/1 12/5/1 14/5/1
f 16/5/2 17/5/2 19/5/2
f 19/5/2 17/5/2 20/5/2
f 18/5/2 19/5/2 21/5/2
f 21/5/2 19/5/2 22/5/2
f 24/5/2 25/5/2 26/5/2
f 26/5/2 25/5/2 27/5/2
f 23/1/2 24/1/2 28/1/2
f 24/5/2 26/5/2 29/5/2
f 28/1/2 24/1/2 29/1/2
f 29/5/2 26/5/2 30/5/2
f 33/1/3 32/1/3 31/1/3
f 34/1/3 32/1/3 33/1/3
f 35/1/3 32/1/3 34/1/3
f 36/1/3 32/1/3 35/1/3
f 37/1/3 32/1/3 36/1/3
f 38/1/3 32/1/3 37/1/3
f 39/1/3 32/1/3 38/1/3
f 40/1/3 32/1/3 39/1/3
f 41/2/3 34/2/3 33/2/3
f 41/3/3 35/3/3 34/3/3
f 42/2/3 36/2/3 35/2/3
f 42/3/3 35/3/3 41/3/3
f 43/2/3 38/2/3 37/2/3
f 43/3/3 39/3/3 38/3/3
f 44/2/3 40/2/3 39/2/3
f 44/3/3 39/3/3 43/3/3
f 45/2/3 41/2/3 33/2/3
f 45/2/3 42/2/3 41/2/3
f 46/2/3 36/2/3 42/2/3
f 46/2/3 42/2/3 45/2/3
f 47/2/3 43/2/3 37/2/3
f 47/2/3 44/2/3 43/2/3
f 48/2/3 40/2/3 44/2/3
f 48/2/3 44/2/3 47/2/3
f 49/2/3 45/2/3 33/2/3
f 49/3/3 46/3/3 45/3/3
f 50/2/3 36/2/3 46/2/3
f 50/3/3 46/3/3 49/3/3
f 51/2/3 47/2/3 37/2/3
f 51/3/3 48/3/3 47/3/3
f 52/2/3 40/2/3 48/2/3
f 52/3/3 48/3/3 51/3/3
f 53/2/3 49/2/3 33/2/3
f 53/2/3 50/2/3 49/2/3
f 54/2/3 36/2/3 50/2/3
f 54/2/3 50/2/3 53/2/3
f 55/2/3 51/2/3 37/2/3
f 55/2/3 52/2/3 51/2/3
f 56/2/3 40/2/3 52/2/3
f 56/2/3 52/2/3 55/2/3
f 57/1/3 33/1/3 31/1/3
f 57/2/3 53/2/3 33/2/3
f 58/3/3 54/3/3 53/3/3
f 58/2/3 53/2/3 57/2/3
f 59/2/3 36/2/3 54/2/3
f 59/3/3 54/3/3 58/3/3
f 60/4/3 37/4/3 36/4/3
f 60/2/3 36/2/3 59/2/3
f 61/2/3 55/2/3 37/2/3
f 61/4/3 37/4/3 60/4/3
f 62/3/3 56/3/3 55/3/3
f 62/2/3 55/2/3 61/2/3
f 63/2/3 40/2/3 56/2/3
f 63/3/3 56/3/3 62/3/3
f 64/1/3 32/1/3 40/1/3
f 64/2/3 40/2/3 63/2/3
f 65/1/3 62/1/3 61/1/3
f 65/1/3 63/1/3 62/1/3
f 65/1/3 64/1/3 63/1/3
f 65/1/3 57/1/3 31/1/3
f 65/1/3 58/1/3 57/1/3
f 65/1/3 59/1/3 58/1/3
f 65/1/3 61/1/3 60/1/3
f 65/1/3 60/1/3 59/1/3
f 66/1/3 32/1/3 64/1/3
f 66/1/3 64/1/3 65/1/3
f 67/5/4 68/5/4 69/5/4
f 69/5/4 68/5/4 70/5/4
f 71/5/4 72/5/4 73/5/4
f 73/5/4 72/5/4 74/5/4
f 75/5/4 76/5/4 77/5/4
f 77/5/4 76/5/4 78/5/4
f 78/5/4 79/5/4 81/5/4
f 81/5/4 79/5/4 82/5/4
f 80/5/4 81/5/4 83/5/4
f 83/5/4 81/5/4 84/5/4
f 85/5/4 86/5/4 87/5/4
f 87/5/4 86/5/4 88/5/4
f 91/1/5 90/1/5 89/1/5
f 92/1/5 90/1/5 91/1/5
f 93/5/5 92/5/5 91/5/5
f 94/5/5 92/5/5 93/5/5
f 95/5/5 92/5/5 94/5/5
f 96/5/5 92/5/5 95/5/5
f 97/5/5 95/5/5 94/5/5
f 98/5/5 95/5/5 97/5/5
f 99/5/6 100/5/6 103/5/6
f 103/5/6 100/5/6 104/5/6
f 101/5/6 102/5/6 105/5/6
f 105/5/6 102/5/6 106/5/6
f 104/5/6 105/5/6 107/5/6
f 107/5/6 105/5/6 108/5/6
f 109/1/6 110/1/6 111/1/6
f 111/1/6 110/1/6 112/1/6
f 111/5/6 112/5/6 113/5/6
f 113/5/6 112/5/6 114/5/6
f 114/5/6 112/5/6 115/5/6
f 115/5/6 112/5/6 116/5/6
f 114/5/6 115/5/6 117/5/6
f 117/5/6 115/5/6 118/5/6
