# MagicaVoxel @ Ephtracy

# group
o 

# material
mtllib Building2_Destroyed2-3.mtl
usemtl palette

# normals
vn -1 0 0
vn 1 0 0
vn 0 0 1
vn 0 0 -1
vn 0 -1 0
vn 0 1 0

# texcoords
vt 0.00195313 0.5
vt 0.00585938 0.5
vt 0.00976563 0.5
vt 0.0175781 0.5

# verts
v -0.3 -0.5 0.3
v -0.3 -0.5 0.2
v -0.3 -0.5 0
v -0.3 -0.4 0.1
v -0.3 -0.4 0
v -0.3 -0.2 0.3
v -0.3 -0.2 0.2
v -0.3 -0.2 0.1
v -0.2 -0.2 0.3
v -0.2 -0.2 0.2
v -0.2 -0.2 0.1
v -0.2 -0.1 0.3
v -0.2 -0.1 0.2
v -0.2 -0.1 0.1
v 0 -0.5 0
v 0 -0.5 -0.4
v 0 -0.4 0.1
v 0 -0.4 0
v 0 -0.4 -0.4
v 0 -0.3 0.2
v 0 -0.3 0.1
v 0 -0.2 0.2
v 0 -0.2 0.1
v 0 -0.1 0.1
v 0 -0.1 0
v 0.2 -0.3 0.3
v 0.2 -0.3 0.2
v 0.2 -0.3 0.1
v 0.2 -0.1 0.3
v 0.2 -0.1 0.2
v 0.2 -0.1 0.1
v 0.3 -0.1 0.3
v 0.3 -0.1 0.2
v 0.3 -0.1 0.1
v 0.3 0 0.3
v 0.3 0 0.2
v 0.3 0.1 0.3
v 0.3 0.1 0.2
v 0.3 0.2 0.3
v 0.3 0.2 0.2
v 0.3 0.2 0.1
v -0.2 -0.3 0.3
v -0.2 -0.3 0.2
v -0.2 -0.2 0.3
v -0.2 -0.2 0.2
v -0.1 -0.3 0.2
v -0.1 -0.3 0.1
v -0.1 -0.2 0.2
v -0.1 -0.2 0.1
v 0.1 -0.5 0
v 0.1 -0.5 -0.4
v 0.1 -0.4 0.1
v 0.1 -0.4 0
v 0.1 -0.4 -0.4
v 0.1 -0.3 0.2
v 0.1 -0.3 0.1
v 0.1 -0.2 0.3
v 0.1 -0.2 0.2
v 0.1 -0.1 0.3
v 0.1 -0.1 0.2
v 0.1 -0.1 0
v 0.4 -0.5 0.3
v 0.4 -0.5 0.2
v 0.4 -0.5 0
v 0.4 -0.4 0.1
v 0.4 -0.4 0
v 0.4 0 0.3
v 0.4 0 0.2
v 0.4 0.1 0.3
v 0.4 0.1 0.2
v 0.4 0.2 0.3
v 0.4 0.2 0.2
v 0.4 0.2 0.1
v -0.3 -0.5 0.3
v -0.3 -0.2 0.3
v -0.2 -0.4 0.3
v -0.2 -0.3 0.3
v -0.2 -0.2 0.3
v -0.2 -0.1 0.3
v -0.1 -0.2 0.3
v -0.1 -0.1 0.3
v 0 -0.2 0.3
v 0 -0.1 0.3
v 0.1 -0.2 0.3
v 0.1 -0.1 0.3
v 0.2 -0.3 0.3
v 0.2 -0.1 0.3
v 0.3 -0.4 0.3
v 0.3 -0.3 0.3
v 0.3 -0.1 0.3
v 0.3 0 0.3
v 0.3 0.1 0.3
v 0.3 0.2 0.3
v 0.4 -0.5 0.3
v 0.4 0 0.3
v 0.4 0.1 0.3
v 0.4 0.2 0.3
v -0.2 -0.3 0.2
v -0.2 -0.2 0.2
v -0.1 -0.3 0.2
v -0.1 -0.2 0.2
v 0 -0.3 0.2
v 0 -0.2 0.2
v 0.1 -0.3 0.2
v 0.1 -0.2 0.2
v 0.3 0 0.2
v 0.3 0.1 0.2
v 0.4 0 0.2
v 0.4 0.1 0.2
v -0.3 -0.4 0.1
v -0.3 -0.2 0.1
v -0.2 -0.2 0.1
v -0.2 -0.1 0.1
v -0.1 -0.3 0.1
v -0.1 -0.2 0.1
v 0 -0.4 0.1
v 0 -0.3 0.1
v 0 -0.2 0.1
v 0 -0.1 0.1
v 0.1 -0.4 0.1
v 0.1 -0.3 0.1
v 0.2 -0.3 0.1
v 0.2 -0.1 0.1
v 0.3 -0.1 0.1
v 0.3 0.2 0.1
v 0.4 -0.4 0.1
v 0.4 0.2 0.1
v -0.3 -0.5 0
v -0.3 -0.4 0
v 0 -0.5 0
v 0 -0.4 0
v 0 -0.1 0
v 0.1 -0.5 0
v 0.1 -0.4 0
v 0.1 -0.1 0
v 0.4 -0.5 0
v 0.4 -0.4 0
v 0 -0.5 -0.4
v 0 -0.4 -0.4
v 0.1 -0.5 -0.4
v 0.1 -0.4 -0.4
v -0.3 -0.5 0.3
v 0.4 -0.5 0.3
v -0.3 -0.5 0.2
v 0.4 -0.5 0.2
v -0.3 -0.5 0
v 0 -0.5 0
v 0.1 -0.5 0
v 0.4 -0.5 0
v 0 -0.5 -0.4
v 0.1 -0.5 -0.4
v -0.2 -0.2 0.3
v -0.1 -0.2 0.3
v 0 -0.2 0.3
v 0.1 -0.2 0.3
v -0.2 -0.2 0.2
v -0.1 -0.2 0.2
v 0 -0.2 0.2
v 0.1 -0.2 0.2
v -0.1 -0.2 0.1
v 0 -0.2 0.1
v 0.3 0.1 0.3
v 0.4 0.1 0.3
v 0.3 0.1 0.2
v 0.4 0.1 0.2
v -0.3 -0.4 0.1
v 0 -0.4 0.1
v 0.1 -0.4 0.1
v 0.4 -0.4 0.1
v -0.3 -0.4 0
v 0 -0.4 0
v 0.1 -0.4 0
v 0.4 -0.4 0
v 0 -0.4 -0.4
v 0.1 -0.4 -0.4
v -0.2 -0.3 0.3
v 0.2 -0.3 0.3
v -0.2 -0.3 0.2
v -0.1 -0.3 0.2
v 0 -0.3 0.2
v 0.1 -0.3 0.2
v 0.2 -0.3 0.2
v -0.1 -0.3 0.1
v 0 -0.3 0.1
v 0.1 -0.3 0.1
v 0.2 -0.3 0.1
v -0.3 -0.2 0.3
v -0.2 -0.2 0.3
v -0.3 -0.2 0.2
v -0.2 -0.2 0.2
v -0.3 -0.2 0.1
v -0.2 -0.2 0.1
v -0.2 -0.1 0.3
v -0.1 -0.1 0.3
v 0 -0.1 0.3
v 0.1 -0.1 0.3
v 0.2 -0.1 0.3
v 0.3 -0.1 0.3
v -0.2 -0.1 0.2
v -0.1 -0.1 0.2
v 0 -0.1 0.2
v 0.1 -0.1 0.2
v 0.2 -0.1 0.2
v 0.3 -0.1 0.2
v -0.2 -0.1 0.1
v 0 -0.1 0.1
v 0.2 -0.1 0.1
v 0.3 -0.1 0.1
v 0 -0.1 0
v 0.1 -0.1 0
v 0.3 0 0.3
v 0.4 0 0.3
v 0.3 0 0.2
v 0.4 0 0.2
v 0.3 0.2 0.3
v 0.4 0.2 0.3
v 0.3 0.2 0.2
v 0.4 0.2 0.2
v 0.3 0.2 0.1
v 0.4 0.2 0.1

# faces
f 4/4/1 3/4/1 2/4/1
f 5/4/1 3/4/1 4/4/1
f 6/1/1 2/1/1 1/1/1
f 7/4/1 4/4/1 2/4/1
f 7/1/1 2/1/1 6/1/1
f 8/4/1 4/4/1 7/4/1
f 12/3/1 10/3/1 9/3/1
f 13/4/1 11/4/1 10/4/1
f 13/3/1 10/3/1 12/3/1
f 14/4/1 11/4/1 13/4/1
f 18/4/1 16/4/1 15/4/1
f 19/4/1 16/4/1 18/4/1
f 21/4/1 18/4/1 17/4/1
f 22/4/1 21/4/1 20/4/1
f 23/4/1 18/4/1 21/4/1
f 23/4/1 21/4/1 22/4/1
f 24/4/1 18/4/1 23/4/1
f 25/4/1 18/4/1 24/4/1
f 29/3/1 27/3/1 26/3/1
f 30/4/1 28/4/1 27/4/1
f 30/3/1 27/3/1 29/3/1
f 31/4/1 28/4/1 30/4/1
f 35/1/1 33/1/1 32/1/1
f 36/4/1 34/4/1 33/4/1
f 36/1/1 33/1/1 35/1/1
f 38/4/1 34/4/1 36/4/1
f 39/1/1 38/1/1 37/1/1
f 40/4/1 34/4/1 38/4/1
f 40/1/1 38/1/1 39/1/1
f 41/4/1 34/4/1 40/4/1
f 42/1/2 43/1/2 44/1/2
f 44/1/2 43/1/2 45/1/2
f 46/4/2 47/4/2 48/4/2
f 48/4/2 47/4/2 49/4/2
f 50/4/2 51/4/2 53/4/2
f 53/4/2 51/4/2 54/4/2
f 52/4/2 53/4/2 56/4/2
f 55/4/2 56/4/2 58/4/2
f 57/3/2 58/3/2 59/3/2
f 58/4/2 56/4/2 60/4/2
f 59/3/2 58/3/2 60/3/2
f 56/4/2 53/4/2 61/4/2
f 60/4/2 56/4/2 61/4/2
f 63/4/2 64/4/2 65/4/2
f 65/4/2 64/4/2 66/4/2
f 62/1/2 63/1/2 67/1/2
f 63/4/2 65/4/2 68/4/2
f 67/1/2 63/1/2 68/1/2
f 68/4/2 65/4/2 70/4/2
f 69/1/2 70/1/2 71/1/2
f 70/4/2 65/4/2 72/4/2
f 71/1/2 70/1/2 72/1/2
f 72/4/2 65/4/2 73/4/2
f 76/1/3 75/1/3 74/1/3
f 77/1/3 75/1/3 76/1/3
f 78/1/3 75/1/3 77/1/3
f 80/3/3 79/3/3 78/3/3
f 81/3/3 79/3/3 80/3/3
f 82/2/3 81/2/3 80/2/3
f 83/2/3 81/2/3 82/2/3
f 84/3/3 83/3/3 82/3/3
f 85/3/3 83/3/3 84/3/3
f 86/2/3 77/2/3 76/2/3
f 88/1/3 76/1/3 74/1/3
f 88/2/3 86/2/3 76/2/3
f 89/3/3 87/3/3 86/3/3
f 89/2/3 86/2/3 88/2/3
f 90/3/3 87/3/3 89/3/3
f 94/1/3 88/1/3 74/1/3
f 94/1/3 90/1/3 89/1/3
f 94/1/3 91/1/3 90/1/3
f 94/1/3 89/1/3 88/1/3
f 95/1/3 91/1/3 94/1/3
f 96/1/3 93/1/3 92/1/3
f 97/1/3 93/1/3 96/1/3
f 100/4/3 99/4/3 98/4/3
f 101/4/3 99/4/3 100/4/3
f 104/4/3 103/4/3 102/4/3
f 105/4/3 103/4/3 104/4/3
f 108/4/3 107/4/3 106/4/3
f 109/4/3 107/4/3 108/4/3
f 110/4/4 111/4/4 112/4/4
f 110/4/4 112/4/4 114/4/4
f 112/4/4 113/4/4 114/4/4
f 114/4/4 113/4/4 115/4/4
f 110/4/4 114/4/4 116/4/4
f 116/4/4 114/4/4 117/4/4
f 115/4/4 113/4/4 118/4/4
f 118/4/4 113/4/4 119/4/4
f 120/4/4 121/4/4 122/4/4
f 122/4/4 123/4/4 124/4/4
f 122/4/4 124/4/4 126/4/4
f 124/4/4 125/4/4 126/4/4
f 120/4/4 122/4/4 126/4/4
f 126/4/4 125/4/4 127/4/4
f 128/4/4 129/4/4 130/4/4
f 130/4/4 129/4/4 131/4/4
f 131/4/4 132/4/4 134/4/4
f 134/4/4 132/4/4 135/4/4
f 133/4/4 134/4/4 136/4/4
f 136/4/4 134/4/4 137/4/4
f 138/4/4 139/4/4 140/4/4
f 140/4/4 139/4/4 141/4/4
f 144/1/5 143/1/5 142/1/5
f 145/1/5 143/1/5 144/1/5
f 146/4/5 145/4/5 144/4/5
f 147/4/5 145/4/5 146/4/5
f 148/4/5 145/4/5 147/4/5
f 149/4/5 145/4/5 148/4/5
f 150/4/5 148/4/5 147/4/5
f 151/4/5 148/4/5 150/4/5
f 156/3/5 153/3/5 152/3/5
f 157/2/5 154/2/5 153/2/5
f 157/3/5 153/3/5 156/3/5
f 158/3/5 155/3/5 154/3/5
f 158/2/5 154/2/5 157/2/5
f 159/3/5 155/3/5 158/3/5
f 160/4/5 158/4/5 157/4/5
f 161/4/5 158/4/5 160/4/5
f 164/1/5 163/1/5 162/1/5
f 165/1/5 163/1/5 164/1/5
f 166/4/6 167/4/6 170/4/6
f 170/4/6 167/4/6 171/4/6
f 168/4/6 169/4/6 172/4/6
f 172/4/6 169/4/6 173/4/6
f 171/4/6 172/4/6 174/4/6
f 174/4/6 172/4/6 175/4/6
f 176/2/6 177/2/6 178/2/6
f 178/2/6 177/2/6 179/2/6
f 179/2/6 177/2/6 180/2/6
f 180/2/6 177/2/6 181/2/6
f 181/2/6 177/2/6 182/2/6
f 179/4/6 180/4/6 183/4/6
f 183/4/6 180/4/6 184/4/6
f 181/4/6 182/4/6 185/4/6
f 185/4/6 182/4/6 186/4/6
f 187/1/6 188/1/6 189/1/6
f 189/1/6 188/1/6 190/1/6
f 189/4/6 190/4/6 191/4/6
f 191/4/6 190/4/6 192/4/6
f 193/3/6 194/3/6 199/3/6
f 194/2/6 195/2/6 200/2/6
f 199/3/6 194/3/6 200/3/6
f 195/3/6 196/3/6 201/3/6
f 200/2/6 195/2/6 201/2/6
f 201/3/6 196/3/6 202/3/6
f 197/3/6 198/3/6 203/3/6
f 203/3/6 198/3/6 204/3/6
f 201/4/6 202/4/6 205/4/6
f 199/4/6 200/4/6 205/4/6
f 200/4/6 201/4/6 205/4/6
f 205/4/6 202/4/6 206/4/6
f 203/4/6 204/4/6 207/4/6
f 207/4/6 204/4/6 208/4/6
f 206/4/6 202/4/6 209/4/6
f 209/4/6 202/4/6 210/4/6
f 211/1/6 212/1/6 213/1/6
f 213/1/6 212/1/6 214/1/6
f 215/1/6 216/1/6 217/1/6
f 217/1/6 216/1/6 218/1/6
f 217/4/6 218/4/6 219/4/6
f 219/4/6 218/4/6 220/4/6
