# MagicaVoxel @ Ephtracy

# group
o 

# material
mtllib Building3_Destroyed1-3.mtl
usemtl palette

# normals
vn -1 0 0
vn 1 0 0
vn 0 0 1
vn 0 0 -1
vn 0 -1 0
vn 0 1 0

# texcoords
vt 0.00195313 0.5
vt 0.00585938 0.5
vt 0.00976563 0.5
vt 0.0136719 0.5
vt 0.0175781 0.5

# verts
v -0.3 -0.6 0.2
v -0.3 -0.6 0
v -0.3 -0.5 0.3
v -0.3 -0.5 0.2
v -0.3 -0.5 0.1
v -0.3 -0.5 0
v -0.3 -0.4 0.3
v -0.3 -0.4 0.2
v -0.3 -0.3 0.3
v -0.3 -0.3 0.2
v -0.3 -5.96046e-008 0.3
v -0.3 -5.96046e-008 0.2
v -0.3 0.1 0.3
v -0.3 0.1 0.2
v -0.3 0.2 0.3
v -0.3 0.2 0.2
v -0.3 0.2 0.1
v -0.3 0.4 0.2
v -0.3 0.4 0.1
v -0.3 0.5 0.3
v -0.3 0.5 0.2
v -0.3 0.7 0.3
v -0.3 0.7 0.2
v -0.3 0.7 0.1
v -0.2 -0.6 0.3
v -0.2 -0.6 0.2
v -0.2 -0.5 0.3
v -0.2 -0.5 0.2
v -0.2 -5.96046e-008 0.3
v -0.2 -5.96046e-008 0.2
v -0.2 0.1 0.3
v -0.2 0.1 0.2
v -0.2 0.2 0.3
v -0.2 0.2 0.2
v -0.2 0.2 0.1
v -0.2 0.3 0.3
v -0.2 0.3 0.2
v -0.2 0.4 0.3
v -0.2 0.4 0.2
v -0.2 0.4 0.1
v -0.2 0.5 0.3
v -0.2 0.5 0.2
v -0.1 -0.4 0.3
v -0.1 -0.4 0.2
v -0.1 -0.3 0.3
v -0.1 -0.3 0.2
v -0.1 -0.2 0.3
v -0.1 -0.2 0.2
v -0.1 0.3 0.3
v -0.1 0.3 0.2
v -0.1 0.4 0.3
v -0.1 0.4 0.2
v 0 -0.6 0
v 0 -0.6 -0.4
v 0 -0.5 0.1
v 0 -0.5 0
v 0 -0.5 -0.4
v 0 0.1 0.3
v 0 0.1 0.2
v 0 0.2 0.3
v 0 0.2 0.2
v 0 0.3 0.3
v 0 0.3 0.2
v 0 0.4 0.1
v 0 0.4 0
v 0.1 -0.4 0.3
v 0.1 -0.4 0.2
v 0.1 -0.3 0.3
v 0.1 -0.3 0.2
v 0.1 -0.2 0.3
v 0.1 -0.2 0.2
v 0.1 -0.2 0.1
v 0.1 -0.1 0.3
v 0.1 -0.1 0.2
v 0.1 -5.96046e-008 0.3
v 0.1 -5.96046e-008 0.2
v 0.1 -5.96046e-008 0.1
v 0.3 -0.2 0.3
v 0.3 -0.2 0.2
v 0.3 -0.1 0.3
v 0.3 -0.1 0.2
v -0.2 -0.3 0.3
v -0.2 -0.3 0.2
v -0.2 -0.2 0.3
v -0.2 -0.2 0.2
v -0.2 0.1 0.3
v -0.2 0.1 0.2
v -0.2 0.2 0.3
v -0.2 0.2 0.2
v -0.1 -0.2 0.3
v -0.1 -0.2 0.2
v -0.1 -0.1 0.3
v -0.1 -0.1 0.2
v -0.1 0.2 0.3
v -0.1 0.2 0.2
v -0.1 0.3 0.3
v -0.1 0.3 0.2
v -0.1 0.4 0.3
v -0.1 0.4 0.2
v -0.1 0.4 0.1
v -0.1 0.5 0.3
v -0.1 0.5 0.2
v -0.1 0.5 0.1
v 0 -0.4 0.3
v 0 -0.4 0.2
v 0 -0.3 0.3
v 0 -0.3 0.2
v 0 -0.2 0.2
v 0 -0.2 0.1
v 0 -0.1 0.3
v 0 -0.1 0.2
v 0 -5.96046e-008 0.3
v 0 -5.96046e-008 0.2
v 0 -5.96046e-008 0.1
v 0 0.5 0.3
v 0 0.5 0.2
v 0 0.5 0.1
v 0 0.6 0.3
v 0 0.6 0.2
v 0 0.7 0.3
v 0 0.7 0.2
v 0 0.7 0.1
v 0.1 -0.6 0
v 0.1 -0.6 -0.4
v 0.1 -0.5 0.1
v 0.1 -0.5 0
v 0.1 -0.5 -0.4
v 0.1 0.2 0.3
v 0.1 0.2 0.2
v 0.1 0.3 0.3
v 0.1 0.3 0.2
v 0.1 0.3 0.1
v 0.1 0.4 0.3
v 0.1 0.4 0.2
v 0.1 0.4 0
v 0.2 -0.4 0.3
v 0.2 -0.4 0.2
v 0.2 -0.3 0.3
v 0.2 -0.3 0.2
v 0.2 -0.2 0.3
v 0.2 -0.2 0.2
v 0.2 -0.1 0.3
v 0.2 -0.1 0.2
v 0.2 0.1 0.3
v 0.2 0.1 0.2
v 0.2 0.2 0.3
v 0.2 0.2 0.2
v 0.2 0.2 0.1
v 0.2 0.3 0.2
v 0.2 0.3 0.1
v 0.3 -0.6 0.3
v 0.3 -0.6 0.2
v 0.3 -0.5 0.3
v 0.3 -0.5 0.2
v 0.3 -5.96046e-008 0.3
v 0.3 -5.96046e-008 0.2
v 0.3 0.1 0.3
v 0.3 0.1 0.2
v 0.4 -0.6 0.2
v 0.4 -0.6 0
v 0.4 -0.5 0.3
v 0.4 -0.5 0.2
v 0.4 -0.5 0.1
v 0.4 -0.5 0
v 0.4 -0.4 0.3
v 0.4 -0.4 0.2
v 0.4 -0.3 0.3
v 0.4 -0.3 0.2
v 0.4 -5.96046e-008 0.3
v 0.4 -5.96046e-008 0.2
v 0.4 0.2 0.2
v 0.4 0.2 0.1
v -0.3 -0.5 0.3
v -0.3 -0.4 0.3
v -0.3 -0.3 0.3
v -0.3 -5.96046e-008 0.3
v -0.3 0.1 0.3
v -0.3 0.2 0.3
v -0.3 0.5 0.3
v -0.3 0.7 0.3
v -0.2 -0.6 0.3
v -0.2 -0.5 0.3
v -0.2 -0.4 0.3
v -0.2 -0.3 0.3
v -0.2 -0.2 0.3
v -0.2 -0.1 0.3
v -0.2 -5.96046e-008 0.3
v -0.2 0.1 0.3
v -0.2 0.2 0.3
v -0.2 0.3 0.3
v -0.2 0.4 0.3
v -0.2 0.5 0.3
v -0.2 0.6 0.3
v -0.1 -0.4 0.3
v -0.1 -0.3 0.3
v -0.1 -0.2 0.3
v -0.1 -0.1 0.3
v -0.1 -5.96046e-008 0.3
v -0.1 0.1 0.3
v -0.1 0.2 0.3
v -0.1 0.3 0.3
v -0.1 0.4 0.3
v -0.1 0.5 0.3
v 0 -0.4 0.3
v 0 -0.3 0.3
v 0 -0.1 0.3
v 0 -5.96046e-008 0.3
v 0 0.1 0.3
v 0 0.2 0.3
v 0 0.3 0.3
v 0 0.5 0.3
v 0 0.6 0.3
v 0 0.7 0.3
v 0.1 -0.4 0.3
v 0.1 -0.3 0.3
v 0.1 -0.2 0.3
v 0.1 -0.1 0.3
v 0.1 -5.96046e-008 0.3
v 0.1 0.1 0.3
v 0.1 0.2 0.3
v 0.1 0.3 0.3
v 0.1 0.4 0.3
v 0.2 -0.4 0.3
v 0.2 -0.3 0.3
v 0.2 -0.2 0.3
v 0.2 -0.1 0.3
v 0.2 -5.96046e-008 0.3
v 0.2 0.1 0.3
v 0.2 0.2 0.3
v 0.3 -0.6 0.3
v 0.3 -0.5 0.3
v 0.3 -0.4 0.3
v 0.3 -0.3 0.3
v 0.3 -0.2 0.3
v 0.3 -0.1 0.3
v 0.3 -5.96046e-008 0.3
v 0.3 0.1 0.3
v 0.4 -0.5 0.3
v 0.4 -0.4 0.3
v 0.4 -0.3 0.3
v 0.4 -5.96046e-008 0.3
v -0.3 -0.6 0.2
v -0.3 -0.5 0.2
v -0.3 -0.4 0.2
v -0.3 -0.3 0.2
v -0.3 -5.96046e-008 0.2
v -0.3 0.1 0.2
v -0.3 0.4 0.2
v -0.3 0.5 0.2
v -0.2 -0.6 0.2
v -0.2 -0.5 0.2
v -0.2 -0.4 0.2
v -0.2 -0.3 0.2
v -0.2 -0.2 0.2
v -0.2 -5.96046e-008 0.2
v -0.2 0.1 0.2
v -0.2 0.2 0.2
v -0.2 0.3 0.2
v -0.2 0.4 0.2
v -0.2 0.5 0.2
v -0.1 -0.4 0.2
v -0.1 -0.3 0.2
v -0.1 -0.2 0.2
v -0.1 -0.1 0.2
v -0.1 0.1 0.2
v -0.1 0.2 0.2
v -0.1 0.3 0.2
v -0.1 0.4 0.2
v 0 -0.4 0.2
v 0 -0.3 0.2
v 0 -0.2 0.2
v 0 -0.1 0.2
v 0 0.1 0.2
v 0 0.2 0.2
v 0 0.3 0.2
v 0.1 -0.4 0.2
v 0.1 -0.3 0.2
v 0.1 0.2 0.2
v 0.1 0.3 0.2
v 0.2 -0.4 0.2
v 0.2 -0.3 0.2
v 0.2 -0.2 0.2
v 0.2 -0.1 0.2
v 0.2 0.1 0.2
v 0.2 0.2 0.2
v 0.2 0.3 0.2
v 0.3 -0.6 0.2
v 0.3 -0.5 0.2
v 0.3 -0.4 0.2
v 0.3 -0.3 0.2
v 0.3 -0.2 0.2
v 0.3 -0.1 0.2
v 0.3 -5.96046e-008 0.2
v 0.3 0.1 0.2
v 0.4 -0.6 0.2
v 0.4 -0.5 0.2
v 0.4 -0.4 0.2
v 0.4 -0.3 0.2
v 0.4 -5.96046e-008 0.2
v 0.4 0.2 0.2
v 0 -0.2 0.1
v 0 -5.96046e-008 0.1
v 0.1 -0.2 0.1
v 0.1 -5.96046e-008 0.1
v -0.3 -0.5 0.1
v -0.3 0.2 0.1
v -0.3 0.4 0.1
v -0.3 0.7 0.1
v -0.2 0.2 0.1
v -0.2 0.4 0.1
v -0.1 0.4 0.1
v -0.1 0.5 0.1
v 0 -0.5 0.1
v 0 0.4 0.1
v 0 0.5 0.1
v 0 0.7 0.1
v 0.1 -0.5 0.1
v 0.1 0.3 0.1
v 0.2 0.2 0.1
v 0.2 0.3 0.1
v 0.4 -0.5 0.1
v 0.4 0.2 0.1
v -0.3 -0.6 0
v -0.3 -0.5 0
v 0 -0.6 0
v 0 -0.5 0
v 0 0.4 0
v 0.1 -0.6 0
v 0.1 -0.5 0
v 0.1 0.4 0
v 0.4 -0.6 0
v 0.4 -0.5 0
v 0 -0.6 -0.4
v 0 -0.5 -0.4
v 0.1 -0.6 -0.4
v 0.1 -0.5 -0.4
v -0.2 -0.6 0.3
v 0.3 -0.6 0.3
v -0.3 -0.6 0.2
v -0.2 -0.6 0.2
v 0.3 -0.6 0.2
v 0.4 -0.6 0.2
v -0.3 -0.6 0
v 0 -0.6 0
v 0.1 -0.6 0
v 0.4 -0.6 0
v 0 -0.6 -0.4
v 0.1 -0.6 -0.4
v -0.3 -0.5 0.3
v -0.2 -0.5 0.3
v 0.3 -0.5 0.3
v 0.4 -0.5 0.3
v -0.3 -0.5 0.2
v -0.2 -0.5 0.2
v 0.3 -0.5 0.2
v 0.4 -0.5 0.2
v -0.3 -0.3 0.3
v -0.2 -0.3 0.3
v 0 -0.3 0.3
v 0.1 -0.3 0.3
v 0.2 -0.3 0.3
v 0.3 -0.3 0.3
v 0.4 -0.3 0.3
v -0.3 -0.3 0.2
v -0.2 -0.3 0.2
v 0 -0.3 0.2
v 0.1 -0.3 0.2
v 0.2 -0.3 0.2
v 0.3 -0.3 0.2
v 0.4 -0.3 0.2
v -0.2 -0.2 0.3
v -0.1 -0.2 0.3
v -0.2 -0.2 0.2
v -0.1 -0.2 0.2
v -0.1 -0.1 0.3
v 0 -0.1 0.3
v 0.2 -0.1 0.3
v 0.3 -0.1 0.3
v -0.1 -0.1 0.2
v 0 -0.1 0.2
v 0.2 -0.1 0.2
v 0.3 -0.1 0.2
v 0 -5.96046e-008 0.3
v 0.1 -5.96046e-008 0.3
v 0 -5.96046e-008 0.2
v 0.1 -5.96046e-008 0.2
v 0 -5.96046e-008 0.1
v 0.1 -5.96046e-008 0.1
v -0.3 0.1 0.3
v -0.2 0.1 0.3
v -0.3 0.1 0.2
v -0.2 0.1 0.2
v -0.2 0.2 0.3
v -0.1 0.2 0.3
v -0.2 0.2 0.2
v -0.1 0.2 0.2
v -0.1 0.3 0.3
v 0 0.3 0.3
v -0.1 0.3 0.2
v 0 0.3 0.2
v -0.2 0.4 0.3
v -0.1 0.4 0.3
v -0.3 0.4 0.2
v -0.2 0.4 0.2
v -0.1 0.4 0.2
v -0.3 0.4 0.1
v -0.2 0.4 0.1
v -0.3 0.5 0.3
v -0.2 0.5 0.3
v -0.1 0.5 0.3
v 0 0.5 0.3
v -0.3 0.5 0.2
v -0.2 0.5 0.2
v -0.1 0.5 0.2
v 0 0.5 0.2
v -0.1 0.5 0.1
v 0 0.5 0.1
v -0.3 -0.5 0.1
v 0 -0.5 0.1
v 0.1 -0.5 0.1
v 0.4 -0.5 0.1
v -0.3 -0.5 0
v 0 -0.5 0
v 0.1 -0.5 0
v 0.4 -0.5 0
v 0 -0.5 -0.4
v 0.1 -0.5 -0.4
v -0.3 -0.4 0.3
v -0.2 -0.4 0.3
v -0.1 -0.4 0.3
v 0 -0.4 0.3
v 0.1 -0.4 0.3
v 0.2 -0.4 0.3
v 0.3 -0.4 0.3
v 0.4 -0.4 0.3
v -0.3 -0.4 0.2
v -0.2 -0.4 0.2
v -0.1 -0.4 0.2
v 0 -0.4 0.2
v 0.1 -0.4 0.2
v 0.2 -0.4 0.2
v 0.3 -0.4 0.2
v 0.4 -0.4 0.2
v -0.1 -0.2 0.3
v 0.1 -0.2 0.3
v 0.2 -0.2 0.3
v 0.3 -0.2 0.3
v -0.1 -0.2 0.2
v 0 -0.2 0.2
v 0.1 -0.2 0.2
v 0.2 -0.2 0.2
v 0.3 -0.2 0.2
v 0 -0.2 0.1
v 0.1 -0.2 0.1
v -0.3 -5.96046e-008 0.3
v -0.2 -5.96046e-008 0.3
v 0.3 -5.96046e-008 0.3
v 0.4 -5.96046e-008 0.3
v -0.3 -5.96046e-008 0.2
v -0.2 -5.96046e-008 0.2
v 0.3 -5.96046e-008 0.2
v 0.4 -5.96046e-008 0.2
v -0.2 0.1 0.3
v -0.1 0.1 0.3
v 0 0.1 0.3
v 0.2 0.1 0.3
v 0.3 0.1 0.3
v -0.2 0.1 0.2
v -0.1 0.1 0.2
v 0 0.1 0.2
v 0.2 0.1 0.2
v 0.3 0.1 0.2
v -0.3 0.2 0.3
v -0.2 0.2 0.3
v 0.1 0.2 0.3
v 0.2 0.2 0.3
v -0.3 0.2 0.2
v -0.2 0.2 0.2
v 0.1 0.2 0.2
v 0.2 0.2 0.2
v 0.4 0.2 0.2
v -0.3 0.2 0.1
v -0.2 0.2 0.1
v 0.2 0.2 0.1
v 0.4 0.2 0.1
v -0.2 0.3 0.3
v -0.1 0.3 0.3
v -0.2 0.3 0.2
v -0.1 0.3 0.2
v 0.1 0.3 0.2
v 0.2 0.3 0.2
v 0.1 0.3 0.1
v 0.2 0.3 0.1
v -0.1 0.4 0.3
v 0.1 0.4 0.3
v -0.1 0.4 0.2
v 0.1 0.4 0.2
v -0.1 0.4 0.1
v 0 0.4 0.1
v 0 0.4 0
v 0.1 0.4 0
v -0.3 0.7 0.3
v 0 0.7 0.3
v -0.3 0.7 0.2
v 0 0.7 0.2
v -0.3 0.7 0.1
v 0 0.7 0.1

# faces
f 4/5/1 2/5/1 1/5/1
f 5/5/1 2/5/1 4/5/1
f 6/5/1 2/5/1 5/5/1
f 7/1/1 4/1/1 3/1/1
f 8/5/1 5/5/1 4/5/1
f 8/1/1 4/1/1 7/1/1
f 10/5/1 5/5/1 8/5/1
f 11/1/1 10/1/1 9/1/1
f 12/5/1 5/5/1 10/5/1
f 12/1/1 10/1/1 11/1/1
f 14/5/1 5/5/1 12/5/1
f 15/1/1 14/1/1 13/1/1
f 16/5/1 5/5/1 14/5/1
f 16/1/1 14/1/1 15/1/1
f 17/5/1 5/5/1 16/5/1
f 21/5/1 19/5/1 18/5/1
f 22/1/1 21/1/1 20/1/1
f 23/5/1 19/5/1 21/5/1
f 23/1/1 21/1/1 22/1/1
f 24/5/1 19/5/1 23/5/1
f 27/1/1 26/1/1 25/1/1
f 28/1/1 26/1/1 27/1/1
f 31/3/1 30/3/1 29/3/1
f 32/3/1 30/3/1 31/3/1
f 36/3/1 34/3/1 33/3/1
f 37/5/1 35/5/1 34/5/1
f 37/3/1 34/3/1 36/3/1
f 39/5/1 35/5/1 37/5/1
f 40/5/1 35/5/1 39/5/1
f 41/3/1 39/3/1 38/3/1
f 42/3/1 39/3/1 41/3/1
f 45/4/1 44/4/1 43/4/1
f 46/4/1 44/4/1 45/4/1
f 47/2/1 46/2/1 45/2/1
f 48/2/1 46/2/1 47/2/1
f 51/2/1 50/2/1 49/2/1
f 52/2/1 50/2/1 51/2/1
f 56/5/1 54/5/1 53/5/1
f 57/5/1 54/5/1 56/5/1
f 60/2/1 59/2/1 58/2/1
f 61/2/1 59/2/1 60/2/1
f 62/3/1 61/3/1 60/3/1
f 63/3/1 61/3/1 62/3/1
f 64/5/1 56/5/1 55/5/1
f 65/5/1 56/5/1 64/5/1
f 68/4/1 67/4/1 66/4/1
f 69/4/1 67/4/1 68/4/1
f 73/4/1 71/4/1 70/4/1
f 74/5/1 72/5/1 71/5/1
f 74/4/1 71/4/1 73/4/1
f 75/2/1 74/2/1 73/2/1
f 76/5/1 72/5/1 74/5/1
f 76/2/1 74/2/1 75/2/1
f 77/5/1 72/5/1 76/5/1
f 80/1/1 79/1/1 78/1/1
f 81/1/1 79/1/1 80/1/1
f 82/1/2 83/1/2 84/1/2
f 84/1/2 83/1/2 85/1/2
f 86/1/2 87/1/2 88/1/2
f 88/1/2 87/1/2 89/1/2
f 90/3/2 91/3/2 92/3/2
f 92/3/2 91/3/2 93/3/2
f 94/3/2 95/3/2 96/3/2
f 96/3/2 95/3/2 97/3/2
f 98/3/2 99/3/2 101/3/2
f 99/5/2 100/5/2 102/5/2
f 101/3/2 99/3/2 102/3/2
f 102/5/2 100/5/2 103/5/2
f 104/4/2 105/4/2 106/4/2
f 106/4/2 105/4/2 107/4/2
f 108/5/2 109/5/2 111/5/2
f 110/2/2 111/2/2 112/2/2
f 111/5/2 109/5/2 113/5/2
f 112/2/2 111/2/2 113/2/2
f 113/5/2 109/5/2 114/5/2
f 115/2/2 116/2/2 118/2/2
f 116/5/2 117/5/2 119/5/2
f 118/2/2 116/2/2 119/2/2
f 118/1/2 119/1/2 120/1/2
f 119/5/2 117/5/2 121/5/2
f 120/1/2 119/1/2 121/1/2
f 121/5/2 117/5/2 122/5/2
f 123/5/2 124/5/2 126/5/2
f 126/5/2 124/5/2 127/5/2
f 128/3/2 129/3/2 130/3/2
f 130/3/2 129/3/2 131/3/2
f 125/5/2 126/5/2 132/5/2
f 130/2/2 131/2/2 133/2/2
f 131/5/2 132/5/2 134/5/2
f 133/2/2 131/2/2 134/2/2
f 132/5/2 126/5/2 135/5/2
f 134/5/2 132/5/2 135/5/2
f 136/4/2 137/4/2 138/4/2
f 138/4/2 137/4/2 139/4/2
f 140/4/2 141/4/2 142/4/2
f 142/4/2 141/4/2 143/4/2
f 144/1/2 145/1/2 146/1/2
f 146/1/2 145/1/2 147/1/2
f 147/5/2 148/5/2 149/5/2
f 149/5/2 148/5/2 150/5/2
f 151/1/2 152/1/2 153/1/2
f 153/1/2 152/1/2 154/1/2
f 155/3/2 156/3/2 157/3/2
f 157/3/2 156/3/2 158/3/2
f 159/5/2 160/5/2 162/5/2
f 162/5/2 160/5/2 163/5/2
f 163/5/2 160/5/2 164/5/2
f 161/1/2 162/1/2 165/1/2
f 162/5/2 163/5/2 166/5/2
f 165/1/2 162/1/2 166/1/2
f 166/5/2 163/5/2 168/5/2
f 167/1/2 168/1/2 169/1/2
f 168/5/2 163/5/2 170/5/2
f 169/1/2 168/1/2 170/1/2
f 170/5/2 163/5/2 171/5/2
f 171/5/2 163/5/2 172/5/2
f 182/1/3 174/1/3 173/1/3
f 183/1/3 174/1/3 182/1/3
f 184/1/3 176/1/3 175/1/3
f 185/1/3 176/1/3 184/1/3
f 186/1/3 176/1/3 185/1/3
f 187/1/3 176/1/3 186/1/3
f 188/1/3 178/1/3 177/1/3
f 189/1/3 178/1/3 188/1/3
f 192/1/3 180/1/3 179/1/3
f 193/1/3 180/1/3 192/1/3
f 194/2/3 183/2/3 182/2/3
f 196/3/3 186/3/3 185/3/3
f 197/2/3 187/2/3 186/2/3
f 197/3/3 186/3/3 196/3/3
f 198/3/3 188/3/3 187/3/3
f 198/2/3 187/2/3 197/2/3
f 199/3/3 188/3/3 198/3/3
f 200/3/3 190/3/3 189/3/3
f 201/3/3 190/3/3 200/3/3
f 202/3/3 192/3/3 191/3/3
f 203/2/3 193/2/3 192/2/3
f 203/3/3 192/3/3 202/3/3
f 204/4/3 195/4/3 194/4/3
f 204/2/3 194/2/3 182/2/3
f 205/2/3 196/2/3 195/2/3
f 205/4/3 195/4/3 204/4/3
f 206/2/3 198/2/3 197/2/3
f 207/4/3 199/4/3 198/4/3
f 207/2/3 198/2/3 206/2/3
f 208/4/3 199/4/3 207/4/3
f 210/2/3 202/2/3 201/2/3
f 211/2/3 193/2/3 203/2/3
f 212/1/3 180/1/3 193/1/3
f 212/2/3 193/2/3 211/2/3
f 213/1/3 180/1/3 212/1/3
f 214/2/3 204/2/3 182/2/3
f 215/2/3 196/2/3 205/2/3
f 216/2/3 196/2/3 215/2/3
f 218/3/3 208/3/3 207/3/3
f 219/2/3 209/2/3 208/2/3
f 219/3/3 208/3/3 218/3/3
f 220/3/3 210/3/3 209/3/3
f 220/2/3 209/2/3 219/2/3
f 221/2/3 202/2/3 210/2/3
f 221/3/3 210/3/3 220/3/3
f 222/2/3 202/2/3 221/2/3
f 223/2/3 214/2/3 182/2/3
f 223/4/3 215/4/3 214/4/3
f 224/2/3 216/2/3 215/2/3
f 224/4/3 215/4/3 223/4/3
f 225/4/3 217/4/3 216/4/3
f 225/2/3 216/2/3 224/2/3
f 226/2/3 218/2/3 217/2/3
f 226/4/3 217/4/3 225/4/3
f 227/4/3 219/4/3 218/4/3
f 227/2/3 218/2/3 226/2/3
f 228/1/3 220/1/3 219/1/3
f 228/4/3 219/4/3 227/4/3
f 229/1/3 220/1/3 228/1/3
f 230/1/3 182/1/3 181/1/3
f 231/2/3 223/2/3 182/2/3
f 231/1/3 182/1/3 230/1/3
f 232/2/3 223/2/3 231/2/3
f 233/2/3 225/2/3 224/2/3
f 234/2/3 225/2/3 233/2/3
f 235/2/3 227/2/3 226/2/3
f 236/3/3 228/3/3 227/3/3
f 236/2/3 227/2/3 235/2/3
f 237/3/3 228/3/3 236/3/3
f 238/1/3 232/1/3 231/1/3
f 239/1/3 232/1/3 238/1/3
f 240/1/3 235/1/3 234/1/3
f 240/1/3 234/1/3 233/1/3
f 240/1/3 236/1/3 235/1/3
f 241/1/3 236/1/3 240/1/3
f 250/5/3 243/5/3 242/5/3
f 251/5/3 243/5/3 250/5/3
f 252/5/3 245/5/3 244/5/3
f 253/5/3 245/5/3 252/5/3
f 255/5/3 247/5/3 246/5/3
f 256/5/3 247/5/3 255/5/3
f 259/5/3 249/5/3 248/5/3
f 260/5/3 249/5/3 259/5/3
f 261/5/3 254/5/3 253/5/3
f 261/5/3 253/5/3 252/5/3
f 262/5/3 254/5/3 261/5/3
f 263/5/3 254/5/3 262/5/3
f 265/5/3 257/5/3 256/5/3
f 266/5/3 257/5/3 265/5/3
f 267/5/3 259/5/3 258/5/3
f 268/5/3 259/5/3 267/5/3
f 271/5/3 264/5/3 263/5/3
f 272/5/3 264/5/3 271/5/3
f 273/5/3 266/5/3 265/5/3
f 273/5/3 267/5/3 266/5/3
f 274/5/3 267/5/3 273/5/3
f 275/5/3 267/5/3 274/5/3
f 276/5/3 270/5/3 269/5/3
f 277/5/3 270/5/3 276/5/3
f 285/5/3 279/5/3 278/5/3
f 286/5/3 279/5/3 285/5/3
f 289/5/3 281/5/3 280/5/3
f 290/5/3 281/5/3 289/5/3
f 291/5/3 283/5/3 282/5/3
f 292/5/3 283/5/3 291/5/3
f 294/5/3 285/5/3 284/5/3
f 295/5/3 288/5/3 287/5/3
f 296/5/3 288/5/3 295/5/3
f 297/5/3 290/5/3 289/5/3
f 298/5/3 290/5/3 297/5/3
f 299/5/3 294/5/3 293/5/3
f 300/5/3 285/5/3 294/5/3
f 300/5/3 294/5/3 299/5/3
f 303/5/3 302/5/3 301/5/3
f 304/5/3 302/5/3 303/5/3
f 305/5/4 306/5/4 309/5/4
f 307/5/4 308/5/4 310/5/4
f 310/5/4 308/5/4 311/5/4
f 309/5/4 310/5/4 311/5/4
f 311/5/4 308/5/4 312/5/4
f 305/5/4 309/5/4 313/5/4
f 309/5/4 311/5/4 313/5/4
f 313/5/4 311/5/4 314/5/4
f 312/5/4 308/5/4 315/5/4
f 315/5/4 308/5/4 316/5/4
f 317/5/4 318/5/4 319/5/4
f 319/5/4 318/5/4 320/5/4
f 317/5/4 319/5/4 321/5/4
f 321/5/4 319/5/4 322/5/4
f 323/5/4 324/5/4 325/5/4
f 325/5/4 324/5/4 326/5/4
f 326/5/4 327/5/4 329/5/4
f 329/5/4 327/5/4 330/5/4
f 328/5/4 329/5/4 331/5/4
f 331/5/4 329/5/4 332/5/4
f 333/5/4 334/5/4 335/5/4
f 335/5/4 334/5/4 336/5/4
f 340/1/5 338/1/5 337/1/5
f 341/1/5 338/1/5 340/1/5
f 343/5/5 340/5/5 339/5/5
f 343/5/5 342/5/5 341/5/5
f 343/5/5 341/5/5 340/5/5
f 344/5/5 342/5/5 343/5/5
f 345/5/5 342/5/5 344/5/5
f 346/5/5 342/5/5 345/5/5
f 347/5/5 345/5/5 344/5/5
f 348/5/5 345/5/5 347/5/5
f 353/1/5 350/1/5 349/1/5
f 354/1/5 350/1/5 353/1/5
f 355/1/5 352/1/5 351/1/5
f 356/1/5 352/1/5 355/1/5
f 364/1/5 358/1/5 357/1/5
f 365/1/5 358/1/5 364/1/5
f 366/2/5 360/2/5 359/2/5
f 367/2/5 360/2/5 366/2/5
f 368/2/5 362/2/5 361/2/5
f 369/1/5 363/1/5 362/1/5
f 369/2/5 362/2/5 368/2/5
f 370/1/5 363/1/5 369/1/5
f 373/3/5 372/3/5 371/3/5
f 374/3/5 372/3/5 373/3/5
f 379/2/5 376/2/5 375/2/5
f 380/2/5 376/2/5 379/2/5
f 381/2/5 378/2/5 377/2/5
f 382/2/5 378/2/5 381/2/5
f 385/3/5 384/3/5 383/3/5
f 386/3/5 384/3/5 385/3/5
f 387/5/5 386/5/5 385/5/5
f 388/5/5 386/5/5 387/5/5
f 391/1/5 390/1/5 389/1/5
f 392/1/5 390/1/5 391/1/5
f 395/3/5 394/3/5 393/3/5
f 396/3/5 394/3/5 395/3/5
f 399/2/5 398/2/5 397/2/5
f 400/2/5 398/2/5 399/2/5
f 404/3/5 402/3/5 401/3/5
f 405/3/5 402/3/5 404/3/5
f 406/5/5 404/5/5 403/5/5
f 407/5/5 404/5/5 406/5/5
f 412/1/5 409/1/5 408/1/5
f 413/1/5 409/1/5 412/1/5
f 414/2/5 411/2/5 410/2/5
f 415/2/5 411/2/5 414/2/5
f 416/5/5 415/5/5 414/5/5
f 417/5/5 415/5/5 416/5/5
f 418/5/6 419/5/6 422/5/6
f 422/5/6 419/5/6 423/5/6
f 420/5/6 421/5/6 424/5/6
f 424/5/6 421/5/6 425/5/6
f 423/5/6 424/5/6 426/5/6
f 426/5/6 424/5/6 427/5/6
f 428/1/6 429/1/6 436/1/6
f 429/2/6 430/2/6 437/2/6
f 436/1/6 429/1/6 437/1/6
f 437/2/6 430/2/6 438/2/6
f 431/2/6 432/2/6 439/2/6
f 439/2/6 432/2/6 440/2/6
f 433/2/6 434/2/6 441/2/6
f 434/1/6 435/1/6 442/1/6
f 441/2/6 434/2/6 442/2/6
f 442/1/6 435/1/6 443/1/6
f 444/2/6 445/2/6 448/2/6
f 448/2/6 445/2/6 449/2/6
f 449/2/6 445/2/6 450/2/6
f 446/2/6 447/2/6 451/2/6
f 451/2/6 447/2/6 452/2/6
f 449/5/6 450/5/6 453/5/6
f 453/5/6 450/5/6 454/5/6
f 455/1/6 456/1/6 459/1/6
f 459/1/6 456/1/6 460/1/6
f 457/1/6 458/1/6 461/1/6
f 461/1/6 458/1/6 462/1/6
f 463/3/6 464/3/6 468/3/6
f 464/4/6 465/4/6 469/4/6
f 468/3/6 464/3/6 469/3/6
f 469/4/6 465/4/6 470/4/6
f 466/3/6 467/3/6 471/3/6
f 471/3/6 467/3/6 472/3/6
f 473/1/6 474/1/6 477/1/6
f 477/1/6 474/1/6 478/1/6
f 475/1/6 476/1/6 479/1/6
f 479/1/6 476/1/6 480/1/6
f 477/5/6 478/5/6 482/5/6
f 482/5/6 478/5/6 483/5/6
f 480/5/6 481/5/6 484/5/6
f 484/5/6 481/5/6 485/5/6
f 486/3/6 487/3/6 488/3/6
f 488/3/6 487/3/6 489/3/6
f 490/5/6 491/5/6 492/5/6
f 492/5/6 491/5/6 493/5/6
f 494/2/6 495/2/6 496/2/6
f 496/2/6 495/2/6 497/2/6
f 496/5/6 497/5/6 498/5/6
f 498/5/6 497/5/6 499/5/6
f 499/5/6 497/5/6 500/5/6
f 500/5/6 497/5/6 501/5/6
f 502/1/6 503/1/6 504/1/6
f 504/1/6 503/1/6 505/1/6
f 504/5/6 505/5/6 506/5/6
f 506/5/6 505/5/6 507/5/6
