# MagicaVoxel @ Ephtracy

# group
o 

# material
mtllib Building3-3.mtl
usemtl palette

# normals
vn -1 0 0
vn 1 0 0
vn 0 0 1
vn 0 0 -1
vn 0 -1 0
vn 0 1 0

# texcoords
vt 0.00195313 0.5
vt 0.00585938 0.5
vt 0.00976563 0.5
vt 0.0136719 0.5
vt 0.0175781 0.5

# verts
v -0.3 -0.6 0.3
v -0.3 -0.6 0.2
v -0.3 -0.6 0
v -0.3 -0.5 0.1
v -0.3 -0.5 0
v -0.3 0.7 0.3
v -0.3 0.7 0.2
v -0.3 0.7 0.1
v 0 -0.6 0
v 0 -0.6 -0.4
v 0 -0.5 0.1
v 0 -0.5 0
v 0 -0.5 -0.4
v 0 0.7 0.1
v 0 0.7 0
v 0.1 -0.6 0
v 0.1 -0.6 -0.4
v 0.1 -0.5 0.1
v 0.1 -0.5 0
v 0.1 -0.5 -0.4
v 0.1 0.7 0.1
v 0.1 0.7 0
v 0.2 0.2 0.3
v 0.2 0.2 0.2
v 0.2 0.2 0.1
v 0.2 0.7 0.3
v 0.2 0.7 0.2
v 0.2 0.7 0.1
v 0.4 -0.6 0.3
v 0.4 -0.6 0.2
v 0.4 -0.6 0
v 0.4 -0.5 0.1
v 0.4 -0.5 0
v 0.4 0.2 0.3
v 0.4 0.2 0.2
v 0.4 0.2 0.1
v -0.3 -0.6 0.3
v -0.3 0.7 0.3
v -0.2 -0.5 0.3
v -0.2 -0.4 0.3
v -0.2 -0.3 0.3
v -0.2 -0.2 0.3
v -0.2 -0.1 0.3
v -0.2 -5.96046e-008 0.3
v -0.2 0.1 0.3
v -0.2 0.2 0.3
v -0.2 0.3 0.3
v -0.2 0.4 0.3
v -0.2 0.5 0.3
v -0.2 0.6 0.3
v -0.1 -0.4 0.3
v -0.1 -0.3 0.3
v -0.1 -0.2 0.3
v -0.1 -0.1 0.3
v -0.1 -5.96046e-008 0.3
v -0.1 0.1 0.3
v -0.1 0.2 0.3
v -0.1 0.3 0.3
v -0.1 0.4 0.3
v -0.1 0.5 0.3
v 0 -0.4 0.3
v 0 -0.3 0.3
v 0 -0.2 0.3
v 0 -0.1 0.3
v 0 -5.96046e-008 0.3
v 0 0.1 0.3
v 0 0.2 0.3
v 0 0.3 0.3
v 0 0.4 0.3
v 0 0.5 0.3
v 0.1 -0.4 0.3
v 0.1 -0.3 0.3
v 0.1 -0.2 0.3
v 0.1 -0.1 0.3
v 0.1 -5.96046e-008 0.3
v 0.1 0.1 0.3
v 0.1 0.2 0.3
v 0.1 0.3 0.3
v 0.1 0.4 0.3
v 0.1 0.5 0.3
v 0.1 0.6 0.3
v 0.2 -0.4 0.3
v 0.2 -0.3 0.3
v 0.2 -0.2 0.3
v 0.2 -0.1 0.3
v 0.2 -5.96046e-008 0.3
v 0.2 0.1 0.3
v 0.2 0.2 0.3
v 0.2 0.7 0.3
v 0.3 -0.5 0.3
v 0.3 -0.4 0.3
v 0.3 -0.3 0.3
v 0.3 -0.2 0.3
v 0.3 -0.1 0.3
v 0.3 -5.96046e-008 0.3
v 0.3 0.1 0.3
v 0.4 -0.6 0.3
v 0.4 0.2 0.3
v -0.3 -0.5 0.1
v -0.3 0.7 0.1
v 0 -0.5 0.1
v 0 0.7 0.1
v 0.1 -0.5 0.1
v 0.1 0.7 0.1
v 0.2 0.2 0.1
v 0.2 0.7 0.1
v 0.4 -0.5 0.1
v 0.4 0.2 0.1
v -0.3 -0.6 0
v -0.3 -0.5 0
v 0 -0.6 0
v 0 -0.5 0
v 0 0.7 0
v 0.1 -0.6 0
v 0.1 -0.5 0
v 0.1 0.7 0
v 0.4 -0.6 0
v 0.4 -0.5 0
v 0 -0.6 -0.4
v 0 -0.5 -0.4
v 0.1 -0.6 -0.4
v 0.1 -0.5 -0.4
v -0.3 -0.6 0.3
v 0.4 -0.6 0.3
v -0.3 -0.6 0.2
v 0.4 -0.6 0.2
v -0.3 -0.6 0
v 0 -0.6 0
v 0.1 -0.6 0
v 0.4 -0.6 0
v 0 -0.6 -0.4
v 0.1 -0.6 -0.4
v -0.3 -0.5 0.1
v 0 -0.5 0.1
v 0.1 -0.5 0.1
v 0.4 -0.5 0.1
v -0.3 -0.5 0
v 0 -0.5 0
v 0.1 -0.5 0
v 0.4 -0.5 0
v 0 -0.5 -0.4
v 0.1 -0.5 -0.4
v 0.2 0.2 0.3
v 0.4 0.2 0.3
v 0.2 0.2 0.2
v 0.4 0.2 0.2
v 0.2 0.2 0.1
v 0.4 0.2 0.1
v -0.3 0.7 0.3
v 0.2 0.7 0.3
v -0.3 0.7 0.2
v 0.2 0.7 0.2
v -0.3 0.7 0.1
v 0 0.7 0.1
v 0.1 0.7 0.1
v 0.2 0.7 0.1
v 0 0.7 0
v 0.1 0.7 0

# faces
f 4/5/1 3/5/1 2/5/1
f 5/5/1 3/5/1 4/5/1
f 6/1/1 2/1/1 1/1/1
f 7/5/1 4/5/1 2/5/1
f 7/1/1 2/1/1 6/1/1
f 8/5/1 4/5/1 7/5/1
f 12/5/1 10/5/1 9/5/1
f 13/5/1 10/5/1 12/5/1
f 14/5/1 12/5/1 11/5/1
f 15/5/1 12/5/1 14/5/1
f 16/5/2 17/5/2 19/5/2
f 19/5/2 17/5/2 20/5/2
f 18/5/2 19/5/2 21/5/2
f 21/5/2 19/5/2 22/5/2
f 23/1/2 24/1/2 26/1/2
f 24/5/2 25/5/2 27/5/2
f 26/1/2 24/1/2 27/1/2
f 27/5/2 25/5/2 28/5/2
f 30/5/2 31/5/2 32/5/2
f 32/5/2 31/5/2 33/5/2
f 29/1/2 30/1/2 34/1/2
f 30/5/2 32/5/2 35/5/2
f 34/1/2 30/1/2 35/1/2
f 35/5/2 32/5/2 36/5/2
f 39/1/3 38/1/3 37/1/3
f 40/1/3 38/1/3 39/1/3
f 41/1/3 38/1/3 40/1/3
f 42/1/3 38/1/3 41/1/3
f 43/1/3 38/1/3 42/1/3
f 44/1/3 38/1/3 43/1/3
f 45/1/3 38/1/3 44/1/3
f 46/1/3 38/1/3 45/1/3
f 47/1/3 38/1/3 46/1/3
f 48/1/3 38/1/3 47/1/3
f 49/1/3 38/1/3 48/1/3
f 50/1/3 38/1/3 49/1/3
f 51/2/3 40/2/3 39/2/3
f 51/3/3 41/3/3 40/3/3
f 52/2/3 42/2/3 41/2/3
f 52/3/3 41/3/3 51/3/3
f 53/3/3 43/3/3 42/3/3
f 53/2/3 42/2/3 52/2/3
f 54/2/3 44/2/3 43/2/3
f 54/3/3 43/3/3 53/3/3
f 55/3/3 45/3/3 44/3/3
f 55/2/3 44/2/3 54/2/3
f 56/2/3 46/2/3 45/2/3
f 56/3/3 45/3/3 55/3/3
f 57/3/3 47/3/3 46/3/3
f 57/2/3 46/2/3 56/2/3
f 58/2/3 48/2/3 47/2/3
f 58/3/3 47/3/3 57/3/3
f 59/3/3 49/3/3 48/3/3
f 59/2/3 48/2/3 58/2/3
f 60/2/3 50/2/3 49/2/3
f 60/3/3 49/3/3 59/3/3
f 61/2/3 51/2/3 39/2/3
f 61/4/3 52/4/3 51/4/3
f 62/2/3 53/2/3 52/2/3
f 62/4/3 52/4/3 61/4/3
f 63/4/3 54/4/3 53/4/3
f 63/2/3 53/2/3 62/2/3
f 64/2/3 55/2/3 54/2/3
f 64/4/3 54/4/3 63/4/3
f 65/4/3 56/4/3 55/4/3
f 65/2/3 55/2/3 64/2/3
f 66/2/3 57/2/3 56/2/3
f 66/4/3 56/4/3 65/4/3
f 67/4/3 58/4/3 57/4/3
f 67/2/3 57/2/3 66/2/3
f 68/2/3 59/2/3 58/2/3
f 68/4/3 58/4/3 67/4/3
f 69/4/3 60/4/3 59/4/3
f 69/2/3 59/2/3 68/2/3
f 70/2/3 50/2/3 60/2/3
f 70/4/3 60/4/3 69/4/3
f 71/2/3 61/2/3 39/2/3
f 71/3/3 62/3/3 61/3/3
f 72/2/3 63/2/3 62/2/3
f 72/3/3 62/3/3 71/3/3
f 73/3/3 64/3/3 63/3/3
f 73/2/3 63/2/3 72/2/3
f 74/2/3 65/2/3 64/2/3
f 74/3/3 64/3/3 73/3/3
f 75/3/3 66/3/3 65/3/3
f 75/2/3 65/2/3 74/2/3
f 76/2/3 67/2/3 66/2/3
f 76/3/3 66/3/3 75/3/3
f 77/3/3 68/3/3 67/3/3
f 77/2/3 67/2/3 76/2/3
f 78/2/3 69/2/3 68/2/3
f 78/3/3 68/3/3 77/3/3
f 79/3/3 70/3/3 69/3/3
f 79/2/3 69/2/3 78/2/3
f 80/2/3 50/2/3 70/2/3
f 80/3/3 70/3/3 79/3/3
f 81/1/3 38/1/3 50/1/3
f 81/2/3 50/2/3 80/2/3
f 82/2/3 71/2/3 39/2/3
f 82/4/3 72/4/3 71/4/3
f 83/2/3 73/2/3 72/2/3
f 83/4/3 72/4/3 82/4/3
f 84/4/3 74/4/3 73/4/3
f 84/2/3 73/2/3 83/2/3
f 85/2/3 75/2/3 74/2/3
f 85/4/3 74/4/3 84/4/3
f 86/4/3 76/4/3 75/4/3
f 86/2/3 75/2/3 85/2/3
f 87/1/3 80/1/3 79/1/3
f 87/4/3 76/4/3 86/4/3
f 87/1/3 77/1/3 76/1/3
f 87/1/3 79/1/3 78/1/3
f 87/1/3 78/1/3 77/1/3
f 87/1/3 81/1/3 80/1/3
f 88/1/3 81/1/3 87/1/3
f 89/1/3 38/1/3 81/1/3
f 89/1/3 81/1/3 88/1/3
f 90/1/3 39/1/3 37/1/3
f 90/2/3 82/2/3 39/2/3
f 91/3/3 83/3/3 82/3/3
f 91/2/3 82/2/3 90/2/3
f 92/2/3 84/2/3 83/2/3
f 92/3/3 83/3/3 91/3/3
f 93/3/3 85/3/3 84/3/3
f 93/2/3 84/2/3 92/2/3
f 94/2/3 86/2/3 85/2/3
f 94/3/3 85/3/3 93/3/3
f 95/3/3 87/3/3 86/3/3
f 95/2/3 86/2/3 94/2/3
f 96/1/3 88/1/3 87/1/3
f 96/3/3 87/3/3 95/3/3
f 97/1/3 93/1/3 92/1/3
f 97/1/3 91/1/3 90/1/3
f 97/1/3 96/1/3 95/1/3
f 97/1/3 95/1/3 94/1/3
f 97/1/3 94/1/3 93/1/3
f 97/1/3 92/1/3 91/1/3
f 97/1/3 90/1/3 37/1/3
f 98/1/3 88/1/3 96/1/3
f 98/1/3 96/1/3 97/1/3
f 99/5/4 100/5/4 101/5/4
f 101/5/4 100/5/4 102/5/4
f 103/5/4 104/5/4 105/5/4
f 105/5/4 104/5/4 106/5/4
f 103/5/4 105/5/4 107/5/4
f 107/5/4 105/5/4 108/5/4
f 109/5/4 110/5/4 111/5/4
f 111/5/4 110/5/4 112/5/4
f 112/5/4 113/5/4 115/5/4
f 115/5/4 113/5/4 116/5/4
f 114/5/4 115/5/4 117/5/4
f 117/5/4 115/5/4 118/5/4
f 119/5/4 120/5/4 121/5/4
f 121/5/4 120/5/4 122/5/4
f 125/1/5 124/1/5 123/1/5
f 126/1/5 124/1/5 125/1/5
f 127/5/5 126/5/5 125/5/5
f 128/5/5 126/5/5 127/5/5
f 129/5/5 126/5/5 128/5/5
f 130/5/5 126/5/5 129/5/5
f 131/5/5 129/5/5 128/5/5
f 132/5/5 129/5/5 131/5/5
f 133/5/6 134/5/6 137/5/6
f 137/5/6 134/5/6 138/5/6
f 135/5/6 136/5/6 139/5/6
f 139/5/6 136/5/6 140/5/6
f 138/5/6 139/5/6 141/5/6
f 141/5/6 139/5/6 142/5/6
f 143/1/6 144/1/6 145/1/6
f 145/1/6 144/1/6 146/1/6
f 145/5/6 146/5/6 147/5/6
f 147/5/6 146/5/6 148/5/6
f 149/1/6 150/1/6 151/1/6
f 151/1/6 150/1/6 152/1/6
f 151/5/6 152/5/6 153/5/6
f 153/5/6 152/5/6 154/5/6
f 154/5/6 152/5/6 155/5/6
f 155/5/6 152/5/6 156/5/6
f 154/5/6 155/5/6 157/5/6
f 157/5/6 155/5/6 158/5/6
